<?xml version="1.0" encoding="UTF-8"?><svg xmlns="http://www.w3.org/2000/svg" xmlns:inkscape="http://www.inkscape.org/namespaces/inkscape" xmlns:sodipodi="http://sodipodi.sourceforge.net/DTD/sodipodi-0.dtd" inkscape:version="1.2.2 (732a01da63, 2022-12-09)" sodipodi:docname="now.thinned.svg" width="1869.918" height="1170.643" aria-label="Building geometry with draggable tool shapes" class="floorplan grid-dark show-mezz" viewBox="-200 -200 1869.918 1170.643"><g aria-label="Shared building geometry" class="base-svg-layer" transform="translate(-200 -200)"><sodipodi:namedview inkscape:current-layer="layer3" inkscape:cx="683.002" inkscape:cy="564.943" inkscape:deskcolor="#505050" inkscape:document-units="mm" inkscape:pagecheckerboard="1" inkscape:pageopacity="1" inkscape:showpageshadow="0" inkscape:window-height="1057" inkscape:window-maximized="1" inkscape:window-width="2360" inkscape:window-x="-8" inkscape:window-y="-8" inkscape:zoom=".69" bordercolor="#ffffff" borderopacity="1" pagecolor="#ffffff" showgrid="false"><inkscape:page width="1869.918" height="1170.643" x="0" y="0"/><inkscape:page width="215.9" height="279.4" x="1737.774" y="-180.013"/><inkscape:page width="215.9" height="279.4" x="1963.674" y="-180.013"/></sodipodi:namedview><defs><clipPath id="a" clipPathUnits="userSpaceOnUse"><path d="M100.875 756H511.11V18.139H100.875Z"/></clipPath></defs><g inkscape:label="layer-building-geometry-source"><g inkscape:groupmode="layer" inkscape:label="mezzanine" style="display:inline"><g inkscape:label="mezzanine 105" clip-path="url(#a)" style="stroke-width:.77590863;stroke-dasharray:none" transform="matrix(0 1.9332 1.9332 0 -180.04 -310.332)"><g style="stroke-width:.77590863;stroke-dasharray:none"><path d="m201.024 368.47-.493 1.232-.074-1.799-.074-1.8.567.568.567.567zM265.922 365.242l-16.602.279-17.193-.279-17.193-.278 33.795-.001h33.795zM211.648 352.805v1.408h-3.755v-2.816h3.755zM206.657 353.45l-.493 1.232-.074-1.799-.074-1.8.567.568.567.567zM205.077 352.805v1.408h-3.755v-2.816h3.755zM199.147 353.45l-.493 1.232-.074-1.799-.075-1.8.568.568.567.567zM213.26 352.1l-.392 2.582v-10.326l.391 2.582.391 2.581zM211.648 346.234v1.408h-3.755v-2.817h3.755zM206.657 346.879l-.493 1.232-.074-1.8-.074-1.798.567.567.567.567zM205.077 346.234v1.408h-3.755v-2.817h3.755zM199.147 346.879l-.493 1.232-.074-1.8-.075-1.798.568.567.567.567zM206.657 341.246l-.493 1.233-.074-1.8-.074-1.799.567.567.567.567zM199.147 341.246l-.493 1.233-.074-1.8-.075-1.799.568.567.567.567zM213.209 341.305l-.474 1.174v-4.694l.474 1.173.473 1.174zM211.482 340.444l.304 1.565h-3.893v-2.503l.646-.646.645-.645.997.332.998.332zM204.9 340.377l.315 1.632h-3.893v-3.892l1.632.314 1.632.314zM211.394 336.944l-.567.567-1.232-.493-1.233-.493 1.8-.074 1.799-.074zM203.884 336.944l-.567.567-1.232-.493-1.233-.493 1.8-.074 1.799-.074zM211.648 334.099v1.477l-1.565-.304-1.565-.303-.39-1.174-.391-1.173h3.911zM205.077 334.03v1.408h-3.755v-2.816h3.755zM199.147 334.675l-.493 1.232-.074-1.799-.075-1.8.568.568.567.567zM213.25 335.662l-.407 2.123-.02-3.755-.018-3.755.427 1.632.427 1.632zM209.553 331.415l-2.565.39-3.068-.38-3.068-.38 5.633-.01 5.632-.01zM213.209 329.101l-.474 1.174v-4.694l.474 1.173.473 1.174zM211.473 327.693l-.312 1.643-4.92.284-4.92.284v-3.854h10.465zM199.147 328.104l-.493 1.232-.074-1.8-.075-1.799.568.568.567.567zM211.648 321.826v1.408h-10.326v-2.816h10.326zM199.147 322.471l-.493 1.233-.074-1.8-.075-1.799.568.567.567.567zM213.26 321.122l-.392 2.582v-10.327l.391 2.582.391 2.581zM211.648 315.255v1.408h-10.326v-2.816h10.326zM199.147 315.9l-.493 1.232-.074-1.8-.075-1.798.568.567.567.567zM283.696 350.636l-.289 13.434v-26.285l-.002-26.285.29 12.85.29 12.852zM211.648 309.622v1.408h-10.326v-2.816h10.326zM199.147 310.268l-.493 1.232-.074-1.8-.075-1.799.568.567.567.567zM211.648 303.05v1.409h-10.326v-2.816h10.326zM199.147 303.696l-.493 1.232-.074-1.799-.075-1.8.568.568.567.567zM213.267 308.432l-.38 3.068-.01-5.633-.01-5.632.39 2.564.39 2.565zM209.067 300.444l-3.051.379-3.051-.379-3.051-.378h12.204zM274.545 297.7v12.016l1.126 1.127 1.127 1.126h5.287l-.25 25.581-.25 25.581-33.09.247-33.092.247v-77.941h59.142zM211.648 292.255v6.572h-11.265v-13.143h11.265zM199.19 295.776l-.369 3.52v-14.081l.368 3.52.369 3.52zM331.15 284.504l-7.698.316-8.26-.314-8.26-.313 15.959-.002 15.958-.002zM297.268 284.504l-6.847.325-6.295-.327-6.296-.328 13.143.003 13.142.003-6.847.325zM260.288 284.508l-14.726.284-15.314-.283-15.314-.283h30.04l30.04-.002zM209.067 284.485l-3.051.38-3.051-.38-3.051-.378h12.204zM191.7 284.502l-6.337.329-6.337-.329-6.336-.328h25.346zM333.452 281.684l-5.398.338-5.398-.338-5.398-.339h21.591zM298.311 281.693l-18.947.274-19.542-.274-19.542-.274h76.978zM320.544 266.44v13.611h-2.817v-27.224h2.817zM169.155 258.225l-.351 4.46v-17.837l.351 4.459.352 4.46zM340.02 269.437l-.297 11.084-.001-21.592-.001-21.591.299 10.508.299 10.508zM169.155 236.634l-.351 4.459v-17.836l.351 4.459.352 4.459zM237.697 264.797l-.282 15.724v-62.897l.282 15.724.282 15.724zM238.337 214.232l.514.832-1.632 1.28-1.633 1.28 1.166-1.494 1.165-1.495-.618-.618-.617-.617h1.14zM339.94 215.512l-.473 1.173v-4.693l.474 1.173.473 1.173zM320.29 213.028l-.568.567-1.232-.493-1.232-.493 1.8-.074 1.799-.074zM169.151 215.54l-.358 3.962.005-8.45.005-8.448.353 4.487.353 4.488z" style="fill:none;stroke:#000;stroke-width:.77590863;stroke-dasharray:none"/><path d="m337.033 207.895 1.281 5.974.033 2.582.033 2.581 2.582.006 2.581.006 3.33.925 3.328.925 1.834 1.362 1.834 1.362-6.074 6.157-6.075 6.156h-3.34v44.121h-16.866l-.25-24.63-.251-24.631-4.345-.622-4.345-.62-2.178-1.166-2.178-1.166 6.523-6.243 6.523-6.243 1.357-2.777 1.357-2.777 4.712-4.928 4.712-4.928 1.3 1.3 1.3 1.3 1.282 5.975zM332.748 197.708v.266l-5.398 5.131-5.398 5.132 5.13-5.398 5.132-5.398h.534zM340.013 200.022l-.34 5.398V183.83l.34 5.398.338 5.398zM338.35 192.043l-.03 7.745-1.41-1.867-1.411-1.867.971-.323.971-.324v-7.425l-3.99.477-3.99.476 1.008-.675 1.007-.676.606-1.643.607-1.643h5.691zM330.573 186.352l-.494 1.232-.074-1.8-.074-1.799.567.568.568.567z" style="fill:none;stroke:#000;stroke-width:.77590863;stroke-dasharray:none"/><path d="M328.992 186.176v1.877H324.3v7.402l3.8.289 3.802.289-4.74 4.658-4.74 4.659v-21.052h6.571zM336.268 183.068l-1.643.429-1.643-.43-1.643-.429h6.572zM327.83 183.066l-1.632.427-2.123-.408-2.123-.409 3.755-.019 3.755-.019zM211.226 186.88l4.3 5.398-.585 7.04-.586 7.04-.18 1.878-.18 1.878 4.694-.043 4.694-.043 2.42-.722 2.42-.723 3.916 5.077 3.917 5.076v61.315h-61.958v-16.697l-1.408-.54-1.408-.54v-79.54l.626-.626.625-.626h34.394zM169.155 194.39l-.351 4.459v-17.836l.351 4.459.352 4.459zM337.441 180.543v.939h-5.632v-1.878h5.632zM328.992 180.543v.939h-5.632v-1.878h5.632z" style="fill:none;stroke:#000;stroke-width:.77590863;stroke-dasharray:none"/><path d="m210.64 179.051 1.1 1.325-1.13.698-1.13.698.63-1.019.63-1.019-1.036-.64-1.036-.64-1.044 1.044-1.045 1.045h-35.297v-2.816h38.259zM337.441 175.85v.938h-5.632v-1.877h5.632zM328.992 175.85v.938h-5.632v-1.877h5.632zM321.185 176.025l-.493 1.232-.074-1.799-.074-1.8.567.568.567.567zM337.441 170.217v.939h-5.632v-1.878h5.632zM328.992 170.217v.939h-5.632v-1.878h5.632zM321.185 171.332l-.493 1.232-.074-1.8-.074-1.799.567.567.567.567zM337.441 165.523v.939h-4.694v-1.878h4.694zM328.054 165.523v.939h-4.694v-1.878h4.694zM321.185 165.699l-.493 1.232-.074-1.8-.074-1.798.567.567.567.567zM169.155 173.737l-.351 4.46V160.36l.351 4.459.352 4.459zM337.441 159.89v.94H323.36v-1.878h14.081zM321.185 161.005l-.493 1.232-.074-1.799-.074-1.8.567.568.567.567zM337.441 155.197v.938H323.36v-1.878h14.081zM334.415 153.063l-3.495.367-4.015-.361-4.014-.36 7.51-.008 7.51-.007-3.496.367zM337.441 150.034v1.408H323.36v-2.817h14.081zM321.185 150.679l-.493 1.232-.074-1.8-.074-1.798.567.567.567.567zM334.415 147.43l-3.495.367-4.015-.36-4.014-.361 7.51-.007 7.51-.007-3.496.367zM337.441 144.87v.94H323.36v-1.878h14.081zM334.415 142.737l-3.495.366-4.015-.36-4.014-.36 7.51-.008 7.51-.007-3.496.367zM169.155 152.146l-.351 4.459v-17.837l.351 4.46.352 4.459zM337.441 139.707v1.408H323.36V138.3h14.081zM321.185 140.353l-.493 1.232-.074-1.8-.074-1.799.567.567.567.568zM334.415 137.104l-3.495.367-4.015-.36-4.014-.361 7.51-.007 7.51-.007-3.496.366zM337.441 134.544v.939H323.36v-1.878h14.081zM337.441 129.85v.94H323.36v-1.878h14.081zM321.185 130.026l-.493 1.232-.074-1.799-.074-1.8.567.568.567.567zM337.441 124.218v.939H323.36v-1.878h14.081zM321.185 125.333l-.493 1.232-.074-1.8-.074-1.799.567.567.567.567zM338.38 119.524v.939h-15.959v-1.878h15.959zM169.155 131.493l-.351 4.46v-17.837l.351 4.459.352 4.46zM334.888 117.394l-3.961.358-4.488-.353-4.487-.353 8.449-.006 8.448-.006-3.961.358zM340.009 109.902l-.352 4.459V96.525l.352 4.459.351 4.459zM338.38 104.504v8.449h-15.959V96.055h15.959zM318.431 181.18l-.262 28.934V95.586l.262 28.33.263 28.33zM169.157 109.432l-.344 4.929V94.647l.344 4.928.345 4.929z" style="fill:none;stroke:#000;stroke-width:.77590863;stroke-dasharray:none"/><path d="m291.975 95.086.908.908 11.718.265 11.718.266.242 58.52.242 58.522-6.11 6.328-6.108 6.328v1.906l1.801 1.63 1.801 1.63 4.066 1.2 4.066 1.201v45.792l-37.315.245-37.316.246v-63.665l-5.217-6.667-5.216-6.668h-2.785l-2.544 1.865-2.543 1.865-3.09.607-3.09.607.635-6.461.635-6.462.812-1.581.812-1.581-.032-1.705-.032-1.704-4.67-5.849-4.67-5.848-19.471-.254-19.47-.253-.246-39.897-.245-39.897.45-1.174.45-1.173h118.906z" style="fill:none;stroke:#000;stroke-width:.77590863;stroke-dasharray:none"/></g></g><g style="stroke:#000;stroke-opacity:1"><g style="stroke:#000;stroke-opacity:1"><path d="M0 0h233.94v-2.64H-2.64L0 0" style="fill:#b3b3b3;fill-opacity:1;fill-rule:evenodd;stroke:#000;stroke-opacity:1" transform="matrix(0 2.2673 2.2673 0 9.324 524.022)"/></g><g style="stroke:#000;stroke-opacity:1"><path d="M0 0h233.94" style="fill:none;stroke:#000;stroke-width:.07;stroke-linecap:round;stroke-linejoin:round;stroke-miterlimit:10;stroke-dasharray:none;stroke-opacity:1" transform="matrix(0 2.2673 2.2673 0 9.324 524.022)"/><g style="stroke:#000;stroke-opacity:1"><path d="M0 0h236.58" style="fill:none;stroke:#000;stroke-width:.07;stroke-linecap:round;stroke-linejoin:round;stroke-miterlimit:10;stroke-dasharray:none;stroke-opacity:1" transform="matrix(0 2.2673 2.2673 0 3.338 518.037)"/></g></g><g style="stroke:#000;stroke-opacity:1"><path d="M0 0v156.48l2.64-1.74V2.64L0 0" style="fill:#b3b3b3;fill-opacity:1;fill-rule:evenodd;stroke:#000;stroke-opacity:1" transform="matrix(0 2.2673 2.2673 0 3.338 518.037)"/></g><g style="stroke:#000;stroke-opacity:1"><path d="M0 0v156.48" style="fill:none;stroke:#000;stroke-width:.07;stroke-linecap:round;stroke-linejoin:round;stroke-miterlimit:10;stroke-dasharray:none;stroke-opacity:1" transform="matrix(0 2.2673 2.2673 0 3.338 518.037)"/><g style="stroke:#000;stroke-opacity:1"><path d="M0 0v152.1" style="fill:none;stroke:#000;stroke-width:.07;stroke-linecap:round;stroke-linejoin:round;stroke-miterlimit:10;stroke-dasharray:none;stroke-opacity:1" transform="matrix(0 2.2673 2.2673 0 9.324 524.022)"/></g></g><g style="stroke:#000;stroke-opacity:1"><path d="M0 0h-137.46l-2.64 1.74H0V0" style="fill:#b3b3b3;fill-opacity:1;fill-rule:evenodd;stroke:#000;stroke-opacity:1" transform="matrix(0 2.2673 2.2673 0 354.174 835.68)"/></g><g style="stroke:#000;stroke-opacity:1"><path d="M0 0v-.9h-137.46" style="fill:none;stroke:#000;stroke-width:.07;stroke-linecap:round;stroke-linejoin:round;stroke-miterlimit:10;stroke-dasharray:none;stroke-opacity:1" transform="matrix(0 2.2673 2.2673 0 356.215 835.68)"/><g style="stroke:#000;stroke-opacity:1"><path d="M0 0v.84h-140.1" style="fill:none;stroke:#000;stroke-width:.07;stroke-linecap:round;stroke-linejoin:round;stroke-miterlimit:10;stroke-dasharray:none;stroke-opacity:1" transform="matrix(0 2.2673 2.2673 0 356.215 835.68)"/></g></g><g style="stroke:#000;stroke-opacity:1"><path d="M0 0h42.9l5.28-5.28H0V0" style="fill:#b3b3b3;fill-opacity:1;fill-rule:evenodd;stroke:#000;stroke-opacity:1" transform="matrix(0 2.2673 2.2673 0 15.31 1054.426)"/></g><g style="stroke:#000;stroke-opacity:1"><path d="M0 0h42.9" style="fill:none;stroke:#000;stroke-width:.07;stroke-linecap:round;stroke-linejoin:round;stroke-miterlimit:10;stroke-dasharray:none;stroke-opacity:1" transform="matrix(0 2.2673 2.2673 0 15.31 1054.426)"/><g style="stroke:#000;stroke-opacity:1"><path d="M0 0h48.18" style="fill:none;stroke:#000;stroke-width:.07;stroke-linecap:round;stroke-linejoin:round;stroke-miterlimit:10;stroke-dasharray:none;stroke-opacity:1" transform="matrix(0 2.2673 2.2673 0 3.338 1054.426)"/></g></g><g style="stroke:#000;stroke-opacity:1"><path d="M0 0v-259.56l-5.28 5.28V0H0" style="fill:#b3b3b3;fill-opacity:1;fill-rule:evenodd;stroke:#000;stroke-opacity:1" transform="matrix(0 2.3809 1.414 0 369.625 1163.962)"/></g><g style="stroke:#000;stroke-opacity:1"><path d="M0 0h2.64v-259.56" style="fill:none;stroke:#000;stroke-width:.07;stroke-linecap:round;stroke-linejoin:round;stroke-miterlimit:10;stroke-dasharray:none;stroke-opacity:1" transform="matrix(0 2.2737 1.3996 0 366.593 1157.677)"/><g style="stroke:#000;stroke-opacity:1"><path d="M0 0h-2.64v-254.28" style="fill:none;stroke:#000;stroke-width:.07;stroke-linecap:round;stroke-linejoin:round;stroke-miterlimit:10;stroke-dasharray:none;stroke-opacity:1" transform="matrix(0 2.2737 1.3996 0 366.593 1157.677)"/></g></g><path d="M319.532 136.532h3.656v164.51h-3.656z" style="fill:#b3b3b3;fill-opacity:1;fill-rule:nonzero;stroke:#000;stroke-width:.824646;stroke-opacity:1" transform="matrix(0 2.2673 2.2673 0 -301.246 110.882)"/><g style="stroke:#000;stroke-opacity:1"><path d="M0 0v253.74h1.74" style="fill:none;stroke:#000;stroke-width:.07;stroke-linecap:round;stroke-linejoin:round;stroke-miterlimit:10;stroke-dasharray:none;stroke-opacity:1" transform="matrix(0 2.2761 1.4653 0 9.308 835.529)"/><g style="stroke:#000;stroke-opacity:1"><path d="M0 0v253.74h-1.74" style="fill:none;stroke:#000;stroke-width:.07;stroke-linecap:round;stroke-linejoin:round;stroke-miterlimit:10;stroke-dasharray:none;stroke-opacity:1" transform="matrix(0 2.2761 1.4653 0 9.308 843.45)"/></g></g><path d="M326.88 134.34h89.16v2.7h-89.16z" style="fill:#fff;fill-opacity:1;fill-rule:nonzero;stroke:#000;stroke-opacity:1" transform="matrix(0 2.2673 2.2673 0 -301.246 110.882)"/><path d="M416.04 137.04h-89.16v-2.7h89.16z" style="fill:none;stroke:#000;stroke-width:.07;stroke-linecap:round;stroke-linejoin:round;stroke-miterlimit:10;stroke-dasharray:none;stroke-opacity:1" transform="matrix(0 2.2673 2.2673 0 -301.246 110.882)"/><g style="stroke:#000;stroke-opacity:1"><path d="M0 0h-89.16" style="fill:none;stroke:#000;stroke-width:.07;stroke-linecap:round;stroke-linejoin:round;stroke-miterlimit:10;stroke-dasharray:none;stroke-opacity:1" transform="matrix(0 2.2673 2.2673 0 9.324 1054.153)"/><g style="stroke:#000;stroke-opacity:1"><path d="M0 0h89.16" style="fill:none;stroke:#000;stroke-width:.07;stroke-linecap:round;stroke-linejoin:round;stroke-miterlimit:10;stroke-dasharray:none;stroke-opacity:1" transform="matrix(0 2.2673 2.2673 0 3.338 852.004)"/></g></g><g style="stroke:#000;stroke-opacity:1"><path d="M-.9 0H0v-2.64h-.9ZM0 0Zm-88.26 0h-.9v-2.64h.9Z" style="fill:#fff;fill-opacity:1;fill-rule:evenodd;stroke:#000;stroke-opacity:1" transform="matrix(0 2.2673 2.2673 0 9.324 1054.153)"/></g><g style="stroke:#000;stroke-opacity:1"><path d="M0 0v-2.64h-.9v.9" style="fill:none;stroke:#000;stroke-width:.07;stroke-linecap:round;stroke-linejoin:round;stroke-miterlimit:10;stroke-dasharray:none;stroke-opacity:1" transform="matrix(0 2.2673 2.2673 0 9.324 1054.153)"/><g style="stroke:#000;stroke-opacity:1"><path d="M0 0v.9h.9" style="fill:none;stroke:#000;stroke-width:.07;stroke-linecap:round;stroke-linejoin:round;stroke-miterlimit:10;stroke-dasharray:none;stroke-opacity:1" transform="matrix(0 2.2673 2.2673 0 7.283 1052.113)"/><g style="stroke:#000;stroke-opacity:1"><path d="M0 0v-2.64h.9v.9" style="fill:none;stroke:#000;stroke-width:.07;stroke-linecap:round;stroke-linejoin:round;stroke-miterlimit:10;stroke-dasharray:none;stroke-opacity:1" transform="matrix(0 2.2673 2.2673 0 9.324 852.004)"/><g style="stroke:#000;stroke-opacity:1"><path d="M0 0v.9h-.9" style="fill:none;stroke:#000;stroke-width:.07;stroke-linecap:round;stroke-linejoin:round;stroke-miterlimit:10;stroke-dasharray:none;stroke-opacity:1" transform="matrix(0 2.2673 2.2673 0 7.283 854.045)"/></g></g></g></g><g style="stroke:#000;stroke-opacity:1"><path d="M0 0h-.84v.84H0Zm-87.36 0h.84v.84h-.84z" style="fill:#fff;fill-opacity:1;fill-rule:evenodd;stroke:#000;stroke-opacity:1" transform="matrix(0 2.2673 2.2673 0 5.379 1052.113)"/></g><g style="stroke:#000;stroke-opacity:1"><path d="M0 0h-.84v.84H0Z" style="fill:none;stroke:#000;stroke-width:.07;stroke-linecap:round;stroke-linejoin:round;stroke-miterlimit:10;stroke-dasharray:none;stroke-opacity:1" transform="matrix(0 2.2673 2.2673 0 5.379 1052.113)"/><g style="stroke:#000;stroke-opacity:1"><path d="M0 0h.84v.84H0Z" style="fill:none;stroke:#000;stroke-width:.07;stroke-linecap:round;stroke-linejoin:round;stroke-miterlimit:10;stroke-dasharray:none;stroke-opacity:1" transform="matrix(0 2.2673 2.2673 0 5.379 854.045)"/><g style="stroke:#000;stroke-opacity:1"><path d="M0 0h-85.68" style="fill:none;stroke:#000;stroke-width:.07;stroke-linecap:round;stroke-linejoin:round;stroke-miterlimit:10;stroke-dasharray:none;stroke-opacity:1" transform="matrix(0 2.2673 2.2673 0 6.33 1050.208)"/><g style="stroke:#000;stroke-opacity:1"><path d="M0 0v-2.64" style="fill:none;stroke:#000;stroke-width:.07;stroke-linecap:round;stroke-linejoin:round;stroke-miterlimit:10;stroke-dasharray:none;stroke-opacity:1" transform="matrix(0 2.2673 2.2673 0 9.324 1054.153)"/><g style="stroke:#000;stroke-opacity:1"><path d="M0 0v-2.64" style="fill:none;stroke:#000;stroke-width:.07;stroke-linecap:round;stroke-linejoin:round;stroke-miterlimit:10;stroke-dasharray:none;stroke-opacity:1" transform="matrix(0 2.2673 2.2673 0 9.324 852.004)"/></g></g></g></g></g><g style="stroke:#000;stroke-opacity:1"><path d="M0 0h1.8v1.74H0Zm16.68 0h1.74v1.74h-1.74zm16.68 0h1.74v1.74h-1.74zm16.68 0h1.74v1.74h-1.74zm16.68 0h1.74v1.74h-1.74ZM83.4 0h1.74v1.74H83.4Zm16.62 0h1.8v1.74h-1.8zm16.68 0h1.74v1.74h-1.74z" style="fill:#fff;fill-opacity:1;fill-rule:evenodd;stroke:#000;stroke-opacity:1" transform="matrix(0 2.2673 2.2673 0 365.737 883.157)"/></g><g style="stroke:#000;stroke-opacity:1"><path d="M0 0h1.8v1.74H0Z" style="fill:none;stroke:#000;stroke-width:.07;stroke-linecap:round;stroke-linejoin:round;stroke-miterlimit:10;stroke-dasharray:none;stroke-opacity:1" transform="matrix(0 2.2673 2.2673 0 365.737 883.157)"/><g style="stroke:#000;stroke-opacity:1"><path d="M0 0h1.74v1.74H0Z" style="fill:none;stroke:#000;stroke-width:.07;stroke-linecap:round;stroke-linejoin:round;stroke-miterlimit:10;stroke-dasharray:none;stroke-opacity:1" transform="matrix(0 2.2673 2.2673 0 365.737 920.974)"/><g style="stroke:#000;stroke-opacity:1"><path d="M0 0h1.74v1.74H0Z" style="fill:none;stroke:#000;stroke-width:.07;stroke-linecap:round;stroke-linejoin:round;stroke-miterlimit:10;stroke-dasharray:none;stroke-opacity:1" transform="matrix(0 2.2673 2.2673 0 365.737 958.792)"/><g style="stroke:#000;stroke-opacity:1"><path d="M0 0h1.74v1.74H0Z" style="fill:none;stroke:#000;stroke-width:.07;stroke-linecap:round;stroke-linejoin:round;stroke-miterlimit:10;stroke-dasharray:none;stroke-opacity:1" transform="matrix(0 2.2673 2.2673 0 365.737 996.61)"/><g style="stroke:#000;stroke-opacity:1"><path d="M0 0h1.74v1.74H0Z" style="fill:none;stroke:#000;stroke-width:.07;stroke-linecap:round;stroke-linejoin:round;stroke-miterlimit:10;stroke-dasharray:none;stroke-opacity:1" transform="matrix(0 2.2673 2.2673 0 365.737 1034.428)"/><g style="stroke:#000;stroke-opacity:1"><path d="M0 0h1.74v1.74H0Z" style="fill:none;stroke:#000;stroke-width:.07;stroke-linecap:round;stroke-linejoin:round;stroke-miterlimit:10;stroke-dasharray:none;stroke-opacity:1" transform="matrix(0 2.2673 2.2673 0 365.737 1072.246)"/><g style="stroke:#000;stroke-opacity:1"><path d="M0 0h1.8v1.74H0Z" style="fill:none;stroke:#000;stroke-width:.07;stroke-linecap:round;stroke-linejoin:round;stroke-miterlimit:10;stroke-dasharray:none;stroke-opacity:1" transform="matrix(0 2.2673 2.2673 0 365.737 1109.928)"/><g style="stroke:#000;stroke-opacity:1"><path d="M0 0h1.74v1.74H0Z" style="fill:none;stroke:#000;stroke-width:.07;stroke-linecap:round;stroke-linejoin:round;stroke-miterlimit:10;stroke-dasharray:none;stroke-opacity:1" transform="matrix(0 2.2673 2.2673 0 365.737 1147.746)"/></g></g></g></g></g></g></g></g><path d="M341.52 294.66h116.7v.84h-116.7z" style="fill:#fff;fill-opacity:1;fill-rule:nonzero;stroke:#000;stroke-opacity:1" transform="matrix(0 2.2673 2.2673 0 -301.246 110.882)"/><path d="M341.52 294.66h116.7v.84h-116.7z" style="fill:none;stroke:#000;stroke-width:.07;stroke-linecap:round;stroke-linejoin:round;stroke-miterlimit:10;stroke-dasharray:none;stroke-opacity:1" transform="matrix(0 2.2673 2.2673 0 -301.246 110.882)"/><g style="stroke:#000;stroke-opacity:1"><path d="M15.3 0H0v4.5h15.3ZM0 0Zm15.3 4.5H0V9h15.3ZM0 4.5ZM15.3 9H0v4.5h15.3ZM0 9Zm15.3 4.5H0v4.44h15.3ZM0 13.5Zm15.3 4.44H0v4.5h15.3zm-15.3 0zm15.3 4.5H0v4.5h15.3zm-15.3 0zm15.3 4.5H0v4.5h15.3zm-15.3 0zm15.3 4.5H0v4.5h15.3zm-15.3 0zm15.3 4.5H0v4.5h15.3zm-15.3 0zm15.3 4.5H0v4.44h15.3zm-15.3 0zm15.3 4.44H0v4.5h15.3zm-15.3 0zm15.3 4.5H0v4.5h15.3zm-15.3 0zm15.3 4.5H0v4.5h15.3zm-15.3 0zm15.3 4.5H0v4.5h15.3zm-15.3 0zm15.3 4.5H0v4.44h15.3z" style="fill:#fff;fill-opacity:1;fill-rule:evenodd;stroke:#000;stroke-opacity:1" transform="matrix(0 2.2673 2.2673 0 75.71 524.022)"/></g><g style="stroke:#000;stroke-opacity:1"><path d="M15.3 0H0v4.5h15.3z" style="fill:none;stroke:#000;stroke-width:.07;stroke-linecap:round;stroke-linejoin:round;stroke-miterlimit:10;stroke-dasharray:none;stroke-opacity:1" transform="matrix(0 2.2673 2.2673 0 75.71 524.022)"/><g style="stroke:#000;stroke-opacity:1"><path d="M0 0" style="fill:none;stroke:#000;stroke-width:.07;stroke-linecap:round;stroke-linejoin:round;stroke-miterlimit:10;stroke-dasharray:none;stroke-opacity:1" transform="matrix(0 2.2673 2.2673 0 75.71 524.022)"/><g style="stroke:#000;stroke-opacity:1"><path d="M15.3 0H0v4.5h15.3z" style="fill:none;stroke:#000;stroke-width:.07;stroke-linecap:round;stroke-linejoin:round;stroke-miterlimit:10;stroke-dasharray:none;stroke-opacity:1" transform="matrix(0 2.2673 2.2673 0 85.912 524.022)"/><g style="stroke:#000;stroke-opacity:1"><path d="M0 0" style="fill:none;stroke:#000;stroke-width:.07;stroke-linecap:round;stroke-linejoin:round;stroke-miterlimit:10;stroke-dasharray:none;stroke-opacity:1" transform="matrix(0 2.2673 2.2673 0 85.912 524.022)"/><g style="stroke:#000;stroke-opacity:1"><path d="M15.3 0H0v4.5h15.3z" style="fill:none;stroke:#000;stroke-width:.07;stroke-linecap:round;stroke-linejoin:round;stroke-miterlimit:10;stroke-dasharray:none;stroke-opacity:1" transform="matrix(0 2.2673 2.2673 0 96.115 524.022)"/><g style="stroke:#000;stroke-opacity:1"><path d="M0 0" style="fill:none;stroke:#000;stroke-width:.07;stroke-linecap:round;stroke-linejoin:round;stroke-miterlimit:10;stroke-dasharray:none;stroke-opacity:1" transform="matrix(0 2.2673 2.2673 0 96.115 524.022)"/><g style="stroke:#000;stroke-opacity:1"><path d="M15.3 0H0v4.44h15.3z" style="fill:none;stroke:#000;stroke-width:.07;stroke-linecap:round;stroke-linejoin:round;stroke-miterlimit:10;stroke-dasharray:none;stroke-opacity:1" transform="matrix(0 2.2673 2.2673 0 106.317 524.022)"/><g style="stroke:#000;stroke-opacity:1"><path d="M0 0" style="fill:none;stroke:#000;stroke-width:.07;stroke-linecap:round;stroke-linejoin:round;stroke-miterlimit:10;stroke-dasharray:none;stroke-opacity:1" transform="matrix(0 2.2673 2.2673 0 106.317 524.022)"/><g style="stroke:#000;stroke-opacity:1"><path d="M15.3 0H0v4.5h15.3z" style="fill:none;stroke:#000;stroke-width:.07;stroke-linecap:round;stroke-linejoin:round;stroke-miterlimit:10;stroke-dasharray:none;stroke-opacity:1" transform="matrix(0 2.2673 2.2673 0 116.384 524.022)"/><g style="stroke:#000;stroke-opacity:1"><path d="M0 0" style="fill:none;stroke:#000;stroke-width:.07;stroke-linecap:round;stroke-linejoin:round;stroke-miterlimit:10;stroke-dasharray:none;stroke-opacity:1" transform="matrix(0 2.2673 2.2673 0 116.384 524.022)"/><g style="stroke:#000;stroke-opacity:1"><path d="M15.3 0H0v4.5h15.3z" style="fill:none;stroke:#000;stroke-width:.07;stroke-linecap:round;stroke-linejoin:round;stroke-miterlimit:10;stroke-dasharray:none;stroke-opacity:1" transform="matrix(0 2.2673 2.2673 0 126.587 524.022)"/><g style="stroke:#000;stroke-opacity:1"><path d="M0 0" style="fill:none;stroke:#000;stroke-width:.07;stroke-linecap:round;stroke-linejoin:round;stroke-miterlimit:10;stroke-dasharray:none;stroke-opacity:1" transform="matrix(0 2.2673 2.2673 0 126.587 524.022)"/><g style="stroke:#000;stroke-opacity:1"><path d="M15.3 0H0v4.5h15.3z" style="fill:none;stroke:#000;stroke-width:.07;stroke-linecap:round;stroke-linejoin:round;stroke-miterlimit:10;stroke-dasharray:none;stroke-opacity:1" transform="matrix(0 2.2673 2.2673 0 136.79 524.022)"/><g style="stroke:#000;stroke-opacity:1"><path d="M0 0" style="fill:none;stroke:#000;stroke-width:.07;stroke-linecap:round;stroke-linejoin:round;stroke-miterlimit:10;stroke-dasharray:none;stroke-opacity:1" transform="matrix(0 2.2673 2.2673 0 136.79 524.022)"/><g style="stroke:#000;stroke-opacity:1"><path d="M15.3 0H0v4.5h15.3z" style="fill:none;stroke:#000;stroke-width:.07;stroke-linecap:round;stroke-linejoin:round;stroke-miterlimit:10;stroke-dasharray:none;stroke-opacity:1" transform="matrix(0 2.2673 2.2673 0 146.992 524.022)"/><g style="stroke:#000;stroke-opacity:1"><path d="M0 0" style="fill:none;stroke:#000;stroke-width:.07;stroke-linecap:round;stroke-linejoin:round;stroke-miterlimit:10;stroke-dasharray:none;stroke-opacity:1" transform="matrix(0 2.2673 2.2673 0 146.992 524.022)"/><g style="stroke:#000;stroke-opacity:1"><path d="M15.3 0H0v4.5h15.3z" style="fill:none;stroke:#000;stroke-width:.07;stroke-linecap:round;stroke-linejoin:round;stroke-miterlimit:10;stroke-dasharray:none;stroke-opacity:1" transform="matrix(0 2.2673 2.2673 0 157.195 524.022)"/><g style="stroke:#000;stroke-opacity:1"><path d="M0 0" style="fill:none;stroke:#000;stroke-width:.07;stroke-linecap:round;stroke-linejoin:round;stroke-miterlimit:10;stroke-dasharray:none;stroke-opacity:1" transform="matrix(0 2.2673 2.2673 0 157.195 524.022)"/><g style="stroke:#000;stroke-opacity:1"><path d="M15.3 0H0v4.44h15.3z" style="fill:none;stroke:#000;stroke-width:.07;stroke-linecap:round;stroke-linejoin:round;stroke-miterlimit:10;stroke-dasharray:none;stroke-opacity:1" transform="matrix(0 2.2673 2.2673 0 167.397 524.022)"/><g style="stroke:#000;stroke-opacity:1"><path d="M0 0" style="fill:none;stroke:#000;stroke-width:.07;stroke-linecap:round;stroke-linejoin:round;stroke-miterlimit:10;stroke-dasharray:none;stroke-opacity:1" transform="matrix(0 2.2673 2.2673 0 167.397 524.022)"/><g style="stroke:#000;stroke-opacity:1"><path d="M15.3 0H0v4.5h15.3z" style="fill:none;stroke:#000;stroke-width:.07;stroke-linecap:round;stroke-linejoin:round;stroke-miterlimit:10;stroke-dasharray:none;stroke-opacity:1" transform="matrix(0 2.2673 2.2673 0 177.464 524.022)"/><g style="stroke:#000;stroke-opacity:1"><path d="M0 0" style="fill:none;stroke:#000;stroke-width:.07;stroke-linecap:round;stroke-linejoin:round;stroke-miterlimit:10;stroke-dasharray:none;stroke-opacity:1" transform="matrix(0 2.2673 2.2673 0 177.464 524.022)"/><g style="stroke:#000;stroke-opacity:1"><path d="M15.3 0H0v4.5h15.3z" style="fill:none;stroke:#000;stroke-width:.07;stroke-linecap:round;stroke-linejoin:round;stroke-miterlimit:10;stroke-dasharray:none;stroke-opacity:1" transform="matrix(0 2.2673 2.2673 0 187.667 524.022)"/><g style="stroke:#000;stroke-opacity:1"><path d="M0 0" style="fill:none;stroke:#000;stroke-width:.07;stroke-linecap:round;stroke-linejoin:round;stroke-miterlimit:10;stroke-dasharray:none;stroke-opacity:1" transform="matrix(0 2.2673 2.2673 0 187.667 524.022)"/><g style="stroke:#000;stroke-opacity:1"><path d="M15.3 0H0v4.5h15.3z" style="fill:none;stroke:#000;stroke-width:.07;stroke-linecap:round;stroke-linejoin:round;stroke-miterlimit:10;stroke-dasharray:none;stroke-opacity:1" transform="matrix(0 2.2673 2.2673 0 197.87 524.022)"/><g style="stroke:#000;stroke-opacity:1"><path d="M0 0" style="fill:none;stroke:#000;stroke-width:.07;stroke-linecap:round;stroke-linejoin:round;stroke-miterlimit:10;stroke-dasharray:none;stroke-opacity:1" transform="matrix(0 2.2673 2.2673 0 197.87 524.022)"/><g style="stroke:#000;stroke-opacity:1"><path d="M15.3 0H0v4.5h15.3z" style="fill:none;stroke:#000;stroke-width:.07;stroke-linecap:round;stroke-linejoin:round;stroke-miterlimit:10;stroke-dasharray:none;stroke-opacity:1" transform="matrix(0 2.2673 2.2673 0 208.072 524.022)"/><g style="stroke:#000;stroke-opacity:1"><path d="M0 0" style="fill:none;stroke:#000;stroke-width:.07;stroke-linecap:round;stroke-linejoin:round;stroke-miterlimit:10;stroke-dasharray:none;stroke-opacity:1" transform="matrix(0 2.2673 2.2673 0 208.072 524.022)"/><g style="stroke:#000;stroke-opacity:1"><path d="M15.3 0H0v4.44h15.3z" style="fill:none;stroke:#000;stroke-width:.07;stroke-linecap:round;stroke-linejoin:round;stroke-miterlimit:10;stroke-dasharray:none;stroke-opacity:1" transform="matrix(0 2.2673 2.2673 0 218.275 524.022)"/><g style="stroke:#000;stroke-opacity:1"><path d="M0 0" style="fill:none;stroke:#000;stroke-width:.07;stroke-linecap:round;stroke-linejoin:round;stroke-miterlimit:10;stroke-dasharray:none;stroke-opacity:1" transform="matrix(0 2.2673 2.2673 0 218.275 524.022)"/></g></g></g></g></g></g></g></g></g></g></g></g></g></g></g></g></g></g></g></g></g></g></g></g></g></g></g></g></g></g><text xml:space="preserve" style="font-variant:normal;font-weight:400;font-stretch:normal;font-size:2.34px;font-family:Calibri;-inkscape-font-specification:Calibri;writing-mode:lr-tb;fill:#000;fill-opacity:1;fill-rule:nonzero;stroke:#000;stroke-opacity:1" transform="translate(66.867 542.931)scale(2.2673)"><tspan x="0 1.5008759" y="0" style="stroke:#000;stroke-opacity:1">Up</tspan></text><g style="stroke:#000;stroke-opacity:1"><path d="M0 0v9.84" style="fill:none;stroke:#000;stroke-width:.07;stroke-linecap:round;stroke-linejoin:round;stroke-miterlimit:10;stroke-dasharray:none;stroke-opacity:1" transform="matrix(0 2.2673 2.2673 0 75.71 541.299)"/></g><g style="stroke:#000;stroke-opacity:1"><path d="m0 0 2.1 1.08L4.26 0" style="fill:none;stroke:#000;stroke-width:.35;stroke-linecap:round;stroke-linejoin:round;stroke-miterlimit:10;stroke-dasharray:none;stroke-opacity:1" transform="matrix(0 2.2673 2.2673 0 95.57 536.537)"/><g style="stroke:#000;stroke-opacity:1"><path d="m0 0 1.08-1.08" style="fill:none;stroke:#000;stroke-width:.35;stroke-linecap:round;stroke-linejoin:round;stroke-miterlimit:10;stroke-dasharray:none;stroke-opacity:1" transform="matrix(0 2.2673 2.2673 0 76.933 540.074)"/></g></g><path d="M202.98 134.34H315.3v2.7H202.98Z" style="fill:#fff;fill-opacity:1;fill-rule:nonzero;stroke:#000;stroke-opacity:1" transform="matrix(0 2.2673 2.2673 0 -301.246 110.882)"/><path d="M315.3 137.04H202.98v-2.7H315.3Z" style="fill:none;stroke:#000;stroke-width:.07;stroke-linecap:round;stroke-linejoin:round;stroke-miterlimit:10;stroke-dasharray:none;stroke-opacity:1" transform="matrix(0 2.2673 2.2673 0 -301.246 110.882)"/><g style="stroke:#000;stroke-opacity:1"><path d="M0 0h-112.32" style="fill:none;stroke:#000;stroke-width:.07;stroke-linecap:round;stroke-linejoin:round;stroke-miterlimit:10;stroke-dasharray:none;stroke-opacity:1" transform="matrix(0 2.2673 2.2673 0 9.324 825.75)"/><g style="stroke:#000;stroke-opacity:1"><path d="M0 0h112.32" style="fill:none;stroke:#000;stroke-width:.07;stroke-linecap:round;stroke-linejoin:round;stroke-miterlimit:10;stroke-dasharray:none;stroke-opacity:1" transform="matrix(0 2.2673 2.2673 0 3.338 571.09)"/></g></g><g style="stroke:#000;stroke-opacity:1"><path d="M-.9 0H0v-2.64h-.9ZM0 0Zm-111.48 0h-.84v-2.64h.84z" style="fill:#fff;fill-opacity:1;fill-rule:evenodd;stroke:#000;stroke-opacity:1" transform="matrix(0 2.2673 2.2673 0 9.324 825.75)"/></g><g style="stroke:#000;stroke-opacity:1"><path d="M0 0v-2.64h-.9v.9" style="fill:none;stroke:#000;stroke-width:.07;stroke-linecap:round;stroke-linejoin:round;stroke-miterlimit:10;stroke-dasharray:none;stroke-opacity:1" transform="matrix(0 2.2673 2.2673 0 9.324 825.75)"/><g style="stroke:#000;stroke-opacity:1"><path d="M0 0v.9h.9" style="fill:none;stroke:#000;stroke-width:.07;stroke-linecap:round;stroke-linejoin:round;stroke-miterlimit:10;stroke-dasharray:none;stroke-opacity:1" transform="matrix(0 2.2673 2.2673 0 7.283 823.709)"/><g style="stroke:#000;stroke-opacity:1"><path d="M0 0v-2.64h.84v.9" style="fill:none;stroke:#000;stroke-width:.07;stroke-linecap:round;stroke-linejoin:round;stroke-miterlimit:10;stroke-dasharray:none;stroke-opacity:1" transform="matrix(0 2.2673 2.2673 0 9.324 571.09)"/><g style="stroke:#000;stroke-opacity:1"><path d="M0 0v.9h-.84" style="fill:none;stroke:#000;stroke-width:.07;stroke-linecap:round;stroke-linejoin:round;stroke-miterlimit:10;stroke-dasharray:none;stroke-opacity:1" transform="matrix(0 2.2673 2.2673 0 7.283 572.995)"/></g></g></g></g><g style="stroke:#000;stroke-opacity:1"><path d="M0 0h-.84v.84H0Zm-110.58 0h.9v.84h-.9Z" style="fill:#fff;fill-opacity:1;fill-rule:evenodd;stroke:#000;stroke-opacity:1" transform="matrix(0 2.2673 2.2673 0 5.379 823.709)"/></g><g style="stroke:#000;stroke-opacity:1"><path d="M0 0h-.84v.84H0Z" style="fill:none;stroke:#000;stroke-width:.07;stroke-linecap:round;stroke-linejoin:round;stroke-miterlimit:10;stroke-dasharray:none;stroke-opacity:1" transform="matrix(0 2.2673 2.2673 0 5.379 823.709)"/><g style="stroke:#000;stroke-opacity:1"><path d="M0 0h.9v.84H0Z" style="fill:none;stroke:#000;stroke-width:.07;stroke-linecap:round;stroke-linejoin:round;stroke-miterlimit:10;stroke-dasharray:none;stroke-opacity:1" transform="matrix(0 2.2673 2.2673 0 5.379 572.995)"/><g style="stroke:#000;stroke-opacity:1"><path d="M0 0h-108.84" style="fill:none;stroke:#000;stroke-width:.07;stroke-linecap:round;stroke-linejoin:round;stroke-miterlimit:10;stroke-dasharray:none;stroke-opacity:1" transform="matrix(0 2.2673 2.2673 0 6.33 821.804)"/><g style="stroke:#000;stroke-opacity:1"><path d="M0 0v-2.64" style="fill:none;stroke:#000;stroke-width:.07;stroke-linecap:round;stroke-linejoin:round;stroke-miterlimit:10;stroke-dasharray:none;stroke-opacity:1" transform="matrix(0 2.2673 2.2673 0 9.324 825.75)"/><g style="stroke:#000;stroke-opacity:1"><path d="M0 0v-2.64" style="fill:none;stroke:#000;stroke-width:.07;stroke-linecap:round;stroke-linejoin:round;stroke-miterlimit:10;stroke-dasharray:none;stroke-opacity:1" transform="matrix(0 2.2673 2.2673 0 9.324 571.09)"/></g></g></g></g></g><path d="M182.22 233.82h15.3v28.8h-15.3z" style="fill:#fff;fill-opacity:1;fill-rule:nonzero;stroke:#000;stroke-opacity:1" transform="matrix(0 2.2673 2.2673 0 -301.246 110.882)"/><g style="stroke:#000;stroke-opacity:1"><path d="M-15.3 0H0v28.8h-15.3z" style="fill:none;stroke:#000;stroke-width:.219;stroke-linecap:round;stroke-linejoin:round;stroke-miterlimit:10;stroke-dasharray:none;stroke-opacity:1" transform="matrix(0 2.2673 2.2673 0 228.885 558.711)"/><g style="stroke:#000;stroke-opacity:1"><path d="M0 0" style="fill:none;stroke:#000;stroke-width:.219;stroke-linecap:round;stroke-linejoin:round;stroke-miterlimit:10;stroke-dasharray:none;stroke-opacity:1" transform="matrix(0 2.2673 2.2673 0 228.885 558.711)"/></g></g><g style="stroke:#000;stroke-opacity:1"><path d="M0 0h-46.74v1.74h45L0 0" style="fill:#b3b3b3;fill-opacity:1;fill-rule:evenodd;stroke:#000;stroke-opacity:1" transform="matrix(0 2.2673 2.2673 0 294.183 629.994)"/></g><path d="M182.04 262.62h.18v1.74h-.18Z" style="fill:#b3b3b3;fill-opacity:1;fill-rule:nonzero;stroke:#000;stroke-opacity:1" transform="matrix(0 2.2673 2.2673 0 -301.246 110.882)"/><g style="stroke:#000;stroke-opacity:1"><path d="M0 0h-46.74" style="fill:none;stroke:#000;stroke-width:.07;stroke-linecap:round;stroke-linejoin:round;stroke-miterlimit:10;stroke-dasharray:none;stroke-opacity:1" transform="matrix(0 2.2673 2.2673 0 294.183 629.994)"/><g style="stroke:#000;stroke-opacity:1"><path d="M0 0h-45" style="fill:none;stroke:#000;stroke-width:.07;stroke-linecap:round;stroke-linejoin:round;stroke-miterlimit:10;stroke-dasharray:none;stroke-opacity:1" transform="matrix(0 2.2673 2.2673 0 298.128 626.049)"/></g></g><g style="stroke:#000;stroke-opacity:1"><path d="M0 0v-26.46l-1.74 1.74V0H0" style="fill:#b3b3b3;fill-opacity:1;fill-rule:evenodd;stroke:#000;stroke-opacity:1" transform="matrix(0 2.2673 2.2673 0 354.174 629.994)"/></g><path d="M227.22 289.08h1.74v.18h-1.74z" style="fill:#b3b3b3;fill-opacity:1;fill-rule:nonzero;stroke:#000;stroke-opacity:1" transform="matrix(0 2.2673 2.2673 0 -301.246 110.882)"/><g style="stroke:#000;stroke-opacity:1"><path d="M0 0v-26.46" style="fill:none;stroke:#000;stroke-width:.07;stroke-linecap:round;stroke-linejoin:round;stroke-miterlimit:10;stroke-dasharray:none;stroke-opacity:1" transform="matrix(0 2.2673 2.2673 0 354.174 629.994)"/><g style="stroke:#000;stroke-opacity:1"><path d="M0 0v-24.72" style="fill:none;stroke:#000;stroke-width:.07;stroke-linecap:round;stroke-linejoin:round;stroke-miterlimit:10;stroke-dasharray:none;stroke-opacity:1" transform="matrix(0 2.2673 2.2673 0 354.174 626.049)"/></g></g><g style="stroke:#000;stroke-opacity:1"><path d="M0 0h54.18l-1.74-1.74H0V0" style="fill:#b3b3b3;fill-opacity:1;fill-rule:evenodd;stroke:#000;stroke-opacity:1" transform="matrix(0 2.2673 2.2673 0 122.233 562.656)"/></g><path d="M199.08 185.04h.18v1.74h-.18Z" style="fill:#b3b3b3;fill-opacity:1;fill-rule:nonzero;stroke:#000;stroke-opacity:1" transform="matrix(0 2.2673 2.2673 0 -301.246 110.882)"/><g style="stroke:#000;stroke-opacity:1"><path d="M0 0h54.18" style="fill:none;stroke:#000;stroke-width:.07;stroke-linecap:round;stroke-linejoin:round;stroke-miterlimit:10;stroke-dasharray:none;stroke-opacity:1" transform="matrix(0 2.2673 2.2673 0 122.233 562.656)"/><g style="stroke:#000;stroke-opacity:1"><path d="M0 0h52.44" style="fill:none;stroke:#000;stroke-width:.07;stroke-linecap:round;stroke-linejoin:round;stroke-miterlimit:10;stroke-dasharray:none;stroke-opacity:1" transform="matrix(0 2.2673 2.2673 0 118.288 562.656)"/></g></g><path d="M197.52 136.8h1.74v126h-1.74z" style="fill:#b3b3b3;fill-opacity:1;fill-rule:nonzero;stroke:#000;stroke-opacity:1" transform="matrix(0 2.2673 2.2673 0 -301.246 110.882)"/><g style="stroke:#000;stroke-opacity:1"><path d="M0 0v-125.64" style="fill:none;stroke:#000;stroke-width:.07;stroke-linecap:round;stroke-linejoin:round;stroke-miterlimit:10;stroke-dasharray:none;stroke-opacity:1" transform="matrix(0 2.2673 2.2673 0 294.183 562.656)"/><g style="stroke:#000;stroke-opacity:1"><path d="M0 0v-125.64" style="fill:none;stroke:#000;stroke-width:.07;stroke-linecap:round;stroke-linejoin:round;stroke-miterlimit:10;stroke-dasharray:none;stroke-opacity:1" transform="matrix(0 2.2673 2.2673 0 294.183 558.711)"/></g></g><g style="stroke:#000;stroke-opacity:1"><path d="M0 0v-49.8h-1.74v48.06L0 0" style="fill:#b3b3b3;fill-opacity:1;fill-rule:evenodd;stroke:#000;stroke-opacity:1" transform="matrix(0 2.2673 2.2673 0 122.233 685.497)"/></g><path d="M251.7 136.8h1.74v.18h-1.74z" style="fill:#b3b3b3;fill-opacity:1;fill-rule:nonzero;stroke:#000;stroke-opacity:1" transform="matrix(0 2.2673 2.2673 0 -301.246 110.882)"/><g style="stroke:#000;stroke-opacity:1"><path d="M0 0v-49.8" style="fill:none;stroke:#000;stroke-width:.07;stroke-linecap:round;stroke-linejoin:round;stroke-miterlimit:10;stroke-dasharray:none;stroke-opacity:1" transform="matrix(0 2.2673 2.2673 0 122.233 685.497)"/><g style="stroke:#000;stroke-opacity:1"><path d="M0 0v-48.06" style="fill:none;stroke:#000;stroke-width:.07;stroke-linecap:round;stroke-linejoin:round;stroke-miterlimit:10;stroke-dasharray:none;stroke-opacity:1" transform="matrix(0 2.2673 2.2673 0 118.288 681.552)"/></g></g><path d="M235.2 185.04h14.88v1.8H235.2Z" style="fill:#fff;fill-opacity:1;fill-rule:nonzero;stroke:#000;stroke-opacity:1" transform="matrix(0 2.2673 2.2673 0 -301.246 110.882)"/><path d="M235.2 186.84h14.88v-1.8H235.2Z" style="fill:none;stroke:#000;stroke-width:.07;stroke-linecap:round;stroke-linejoin:round;stroke-miterlimit:10;stroke-dasharray:none;stroke-opacity:1" transform="matrix(0 2.2673 2.2673 0 -301.246 110.882)"/><g style="stroke:#000;stroke-opacity:1"><path d="M0 0h14.88" style="fill:none;stroke:#000;stroke-width:.07;stroke-linecap:round;stroke-linejoin:round;stroke-miterlimit:10;stroke-dasharray:none;stroke-opacity:1" transform="matrix(0 2.2673 2.2673 0 122.233 644.142)"/><g style="stroke:#000;stroke-opacity:1"><path d="M0 0h14.88" style="fill:none;stroke:#000;stroke-width:.07;stroke-linecap:round;stroke-linejoin:round;stroke-miterlimit:10;stroke-dasharray:none;stroke-opacity:1" transform="matrix(0 2.2673 2.2673 0 118.288 644.142)"/></g></g><g style="stroke:#000;stroke-opacity:1"><path d="M-.9 0H0v-1.74h-.9ZM0 0Zm-13.98 0h-.9v-1.74h.9Z" style="fill:#fff;fill-opacity:1;fill-rule:evenodd;stroke:#000;stroke-opacity:1" transform="matrix(0 2.2673 2.2673 0 122.233 677.879)"/></g><g style="stroke:#000;stroke-opacity:1"><path d="M0 0v-1.74h-.9v.66" style="fill:none;stroke:#000;stroke-width:.07;stroke-linecap:round;stroke-linejoin:round;stroke-miterlimit:10;stroke-dasharray:none;stroke-opacity:1" transform="matrix(0 2.2673 2.2673 0 122.233 677.879)"/><g style="stroke:#000;stroke-opacity:1"><path d="M0 0v.42h.9" style="fill:none;stroke:#000;stroke-width:.07;stroke-linecap:round;stroke-linejoin:round;stroke-miterlimit:10;stroke-dasharray:none;stroke-opacity:1" transform="matrix(0 2.2673 2.2673 0 121.281 675.838)"/><g style="stroke:#000;stroke-opacity:1"><path d="M0 0v-1.74h.9v.66" style="fill:none;stroke:#000;stroke-width:.07;stroke-linecap:round;stroke-linejoin:round;stroke-miterlimit:10;stroke-dasharray:none;stroke-opacity:1" transform="matrix(0 2.2673 2.2673 0 122.233 644.142)"/><g style="stroke:#000;stroke-opacity:1"><path d="M0 0v.42h-.9" style="fill:none;stroke:#000;stroke-width:.07;stroke-linecap:round;stroke-linejoin:round;stroke-miterlimit:10;stroke-dasharray:none;stroke-opacity:1" transform="matrix(0 2.2673 2.2673 0 121.281 646.182)"/></g></g></g></g><g style="stroke:#000;stroke-opacity:1"><path d="M0 0h-.24v.66H0Zm-13.08 0h.18v.66h-.18Z" style="fill:#fff;fill-opacity:1;fill-rule:evenodd;stroke:#000;stroke-opacity:1" transform="matrix(0 2.2673 2.2673 0 119.785 675.838)"/></g><g style="stroke:#000;stroke-opacity:1"><path d="M0 0h-.24v.66H0" style="fill:none;stroke:#000;stroke-width:.07;stroke-linecap:round;stroke-linejoin:round;stroke-miterlimit:10;stroke-dasharray:none;stroke-opacity:1" transform="matrix(0 2.2673 2.2673 0 119.785 675.838)"/><g style="stroke:#000;stroke-opacity:1"><path d="M0 0h.18v.66H0" style="fill:none;stroke:#000;stroke-width:.07;stroke-linecap:round;stroke-linejoin:round;stroke-miterlimit:10;stroke-dasharray:none;stroke-opacity:1" transform="matrix(0 2.2673 2.2673 0 119.785 646.182)"/><g style="stroke:#000;stroke-opacity:1"><path d="M0 0v-1.74" style="fill:none;stroke:#000;stroke-width:.07;stroke-linecap:round;stroke-linejoin:round;stroke-miterlimit:10;stroke-dasharray:none;stroke-opacity:1" transform="matrix(0 2.2673 2.2673 0 122.233 677.879)"/><g style="stroke:#000;stroke-opacity:1"><path d="M0 0v-1.74" style="fill:none;stroke:#000;stroke-width:.07;stroke-linecap:round;stroke-linejoin:round;stroke-miterlimit:10;stroke-dasharray:none;stroke-opacity:1" transform="matrix(0 2.2673 2.2673 0 122.233 644.142)"/><g style="stroke:#000;stroke-opacity:1"><path d="M0 0c0-7.2 5.82-13.08 13.08-13.08" style="fill:none;stroke:#000;stroke-width:.07;stroke-linecap:round;stroke-linejoin:round;stroke-miterlimit:10;stroke-dasharray:none;stroke-opacity:1" transform="matrix(0 2.2673 2.2673 0 118.288 646.182)"/></g></g></g></g></g><path d="M248.52 171.96h.66v13.08h-.66Z" style="fill:#fff;fill-opacity:1;fill-rule:nonzero;stroke:#000;stroke-opacity:1" transform="matrix(0 2.2673 2.2673 0 -301.246 110.882)"/><g style="stroke:#000;stroke-opacity:1"><path d="M.66 0H0v13.08h.66Z" style="fill:none;stroke:#000;stroke-width:.07;stroke-linecap:round;stroke-linejoin:round;stroke-miterlimit:10;stroke-dasharray:none;stroke-opacity:1" transform="matrix(0 2.2673 2.2673 0 88.633 674.342)"/><g style="stroke:#000;stroke-opacity:1"><path d="M0 0" style="fill:none;stroke:#000;stroke-width:.07;stroke-linecap:round;stroke-linejoin:round;stroke-miterlimit:10;stroke-dasharray:none;stroke-opacity:1" transform="matrix(0 2.2673 2.2673 0 88.633 674.342)"/></g></g><path d="M211.92 262.62h14.88v1.8h-14.88z" style="fill:#fff;fill-opacity:1;fill-rule:nonzero;stroke:#000;stroke-opacity:1" transform="matrix(0 2.2673 2.2673 0 -301.246 110.882)"/><path d="M211.92 262.62h14.88v1.8h-14.88z" style="fill:none;stroke:#000;stroke-width:.07;stroke-linecap:round;stroke-linejoin:round;stroke-miterlimit:10;stroke-dasharray:none;stroke-opacity:1" transform="matrix(0 2.2673 2.2673 0 -301.246 110.882)"/><g style="stroke:#000;stroke-opacity:1"><path d="M0 0h14.88" style="fill:none;stroke:#000;stroke-width:.07;stroke-linecap:round;stroke-linejoin:round;stroke-miterlimit:10;stroke-dasharray:none;stroke-opacity:1" transform="matrix(0 2.2673 2.2673 0 294.183 591.36)"/><g style="stroke:#000;stroke-opacity:1"><path d="M0 0h14.88" style="fill:none;stroke:#000;stroke-width:.07;stroke-linecap:round;stroke-linejoin:round;stroke-miterlimit:10;stroke-dasharray:none;stroke-opacity:1" transform="matrix(0 2.2673 2.2673 0 298.128 591.36)"/></g></g><g style="stroke:#000;stroke-opacity:1"><path d="M-.9 0H0v1.74h-.9ZM0 0Zm-13.98 0h-.9v1.74h.9Z" style="fill:#fff;fill-opacity:1;fill-rule:evenodd;stroke:#000;stroke-opacity:1" transform="matrix(0 2.2673 2.2673 0 294.183 625.097)"/></g><g style="stroke:#000;stroke-opacity:1"><path d="M0 0v1.74h-.9v-.6" style="fill:none;stroke:#000;stroke-width:.07;stroke-linecap:round;stroke-linejoin:round;stroke-miterlimit:10;stroke-dasharray:none;stroke-opacity:1" transform="matrix(0 2.2673 2.2673 0 294.183 625.097)"/><g style="stroke:#000;stroke-opacity:1"><path d="M0 0v-.48h.9" style="fill:none;stroke:#000;stroke-width:.07;stroke-linecap:round;stroke-linejoin:round;stroke-miterlimit:10;stroke-dasharray:none;stroke-opacity:1" transform="matrix(0 2.2673 2.2673 0 295.27 623.056)"/><g style="stroke:#000;stroke-opacity:1"><path d="M0 0v1.74h.9v-.6" style="fill:none;stroke:#000;stroke-width:.07;stroke-linecap:round;stroke-linejoin:round;stroke-miterlimit:10;stroke-dasharray:none;stroke-opacity:1" transform="matrix(0 2.2673 2.2673 0 294.183 591.36)"/><g style="stroke:#000;stroke-opacity:1"><path d="M0 0v-.48h-.9" style="fill:none;stroke:#000;stroke-width:.07;stroke-linecap:round;stroke-linejoin:round;stroke-miterlimit:10;stroke-dasharray:none;stroke-opacity:1" transform="matrix(0 2.2673 2.2673 0 295.27 593.4)"/></g></g></g></g><g style="stroke:#000;stroke-opacity:1"><path d="M0 0h-.18v-.66H0Zm-13.08 0h.18v-.66h-.18Z" style="fill:#fff;fill-opacity:1;fill-rule:evenodd;stroke:#000;stroke-opacity:1" transform="matrix(0 2.2673 2.2673 0 296.767 623.056)"/></g><g style="stroke:#000;stroke-opacity:1"><path d="M0 0h-.18v-.66H0" style="fill:none;stroke:#000;stroke-width:.07;stroke-linecap:round;stroke-linejoin:round;stroke-miterlimit:10;stroke-dasharray:none;stroke-opacity:1" transform="matrix(0 2.2673 2.2673 0 296.767 623.056)"/><g style="stroke:#000;stroke-opacity:1"><path d="M0 0h.18v-.66H0" style="fill:none;stroke:#000;stroke-width:.07;stroke-linecap:round;stroke-linejoin:round;stroke-miterlimit:10;stroke-dasharray:none;stroke-opacity:1" transform="matrix(0 2.2673 2.2673 0 296.767 593.4)"/><g style="stroke:#000;stroke-opacity:1"><path d="M0 0v1.74" style="fill:none;stroke:#000;stroke-width:.07;stroke-linecap:round;stroke-linejoin:round;stroke-miterlimit:10;stroke-dasharray:none;stroke-opacity:1" transform="matrix(0 2.2673 2.2673 0 294.183 625.097)"/><g style="stroke:#000;stroke-opacity:1"><path d="M0 0v1.74" style="fill:none;stroke:#000;stroke-width:.07;stroke-linecap:round;stroke-linejoin:round;stroke-miterlimit:10;stroke-dasharray:none;stroke-opacity:1" transform="matrix(0 2.2673 2.2673 0 294.183 591.36)"/><g style="stroke:#000;stroke-opacity:1"><path d="M0 0c0 7.26 5.88 13.14 13.08 13.14" style="fill:none;stroke:#000;stroke-width:.07;stroke-linecap:round;stroke-linejoin:round;stroke-miterlimit:10;stroke-dasharray:none;stroke-opacity:1" transform="matrix(0 2.2673 2.2673 0 298.128 593.4)"/></g></g></g></g></g><path d="M225.24 264.36h.66v13.14h-.66Z" style="fill:#fff;fill-opacity:1;fill-rule:nonzero;stroke:#000;stroke-opacity:1" transform="matrix(0 2.2673 2.2673 0 -301.246 110.882)"/><g style="stroke:#000;stroke-opacity:1"><path d="M.66 0H0v-13.14h.66Z" style="fill:none;stroke:#000;stroke-width:.07;stroke-linecap:round;stroke-linejoin:round;stroke-miterlimit:10;stroke-dasharray:none;stroke-opacity:1" transform="matrix(0 2.2673 2.2673 0 327.92 621.56)"/><g style="stroke:#000;stroke-opacity:1"><path d="M0 0" style="fill:none;stroke:#000;stroke-width:.07;stroke-linecap:round;stroke-linejoin:round;stroke-miterlimit:10;stroke-dasharray:none;stroke-opacity:1" transform="matrix(0 2.2673 2.2673 0 327.92 621.56)"/></g></g><path d="M197.46 246.84h1.86v14.88h-1.86z" style="fill:#fff;fill-opacity:1;fill-rule:nonzero;stroke:#000;stroke-opacity:1" transform="matrix(0 2.2673 2.2673 0 -301.246 110.882)"/><g style="stroke:#000;stroke-opacity:1"><path d="M-1.86 0H0v14.88h-1.86z" style="fill:none;stroke:#000;stroke-width:.07;stroke-linecap:round;stroke-linejoin:round;stroke-miterlimit:10;stroke-dasharray:none;stroke-opacity:1" transform="matrix(0 2.2673 2.2673 0 258.405 562.792)"/><g style="stroke:#000;stroke-opacity:1"><path d="M0 0" style="fill:none;stroke:#000;stroke-width:.07;stroke-linecap:round;stroke-linejoin:round;stroke-miterlimit:10;stroke-dasharray:none;stroke-opacity:1" transform="matrix(0 2.2673 2.2673 0 258.405 562.792)"/></g></g><g style="stroke:#000;stroke-opacity:1"><path d="M0 0v14.88" style="fill:none;stroke:#000;stroke-width:.07;stroke-linecap:round;stroke-linejoin:round;stroke-miterlimit:10;stroke-dasharray:none;stroke-opacity:1" transform="matrix(0 2.2673 2.2673 0 258.405 562.656)"/><g style="stroke:#000;stroke-opacity:1"><path d="M0 0v14.88" style="fill:none;stroke:#000;stroke-width:.07;stroke-linecap:round;stroke-linejoin:round;stroke-miterlimit:10;stroke-dasharray:none;stroke-opacity:1" transform="matrix(0 2.2673 2.2673 0 258.405 558.711)"/></g></g><g style="stroke:#000;stroke-opacity:1"><path d="M0 0h-1.74v-.9H0Zm0-14.88h-1.74v.84H0Z" style="fill:#fff;fill-opacity:1;fill-rule:evenodd;stroke:#000;stroke-opacity:1" transform="matrix(0 2.2673 2.2673 0 292.142 562.656)"/></g><g style="stroke:#000;stroke-opacity:1"><path d="M0 0h-1.74v-.9h.66" style="fill:none;stroke:#000;stroke-width:.07;stroke-linecap:round;stroke-linejoin:round;stroke-miterlimit:10;stroke-dasharray:none;stroke-opacity:1" transform="matrix(0 2.2673 2.2673 0 292.142 562.656)"/><g style="stroke:#000;stroke-opacity:1"><path d="M0 0h.42v.9" style="fill:none;stroke:#000;stroke-width:.07;stroke-linecap:round;stroke-linejoin:round;stroke-miterlimit:10;stroke-dasharray:none;stroke-opacity:1" transform="matrix(0 2.2673 2.2673 0 290.102 561.704)"/><g style="stroke:#000;stroke-opacity:1"><path d="M0 0h-1.74v.84h.66" style="fill:none;stroke:#000;stroke-width:.07;stroke-linecap:round;stroke-linejoin:round;stroke-miterlimit:10;stroke-dasharray:none;stroke-opacity:1" transform="matrix(0 2.2673 2.2673 0 258.405 562.656)"/><g style="stroke:#000;stroke-opacity:1"><path d="M0 0h.42v-.84" style="fill:none;stroke:#000;stroke-width:.07;stroke-linecap:round;stroke-linejoin:round;stroke-miterlimit:10;stroke-dasharray:none;stroke-opacity:1" transform="matrix(0 2.2673 2.2673 0 260.31 561.704)"/></g></g></g></g><g style="stroke:#000;stroke-opacity:1"><path d="M.66 0H0v-.24h.66ZM0 0Zm.66-13.14H0v.24h.66z" style="fill:#fff;fill-opacity:1;fill-rule:evenodd;stroke:#000;stroke-opacity:1" transform="matrix(0 2.2673 2.2673 0 290.102 560.208)"/></g><g style="stroke:#000;stroke-opacity:1"><path d="M0 0v-.24h.66V0" style="fill:none;stroke:#000;stroke-width:.07;stroke-linecap:round;stroke-linejoin:round;stroke-miterlimit:10;stroke-dasharray:none;stroke-opacity:1" transform="matrix(0 2.2673 2.2673 0 290.102 560.208)"/><g style="stroke:#000;stroke-opacity:1"><path d="M0 0v.24h.66V0" style="fill:none;stroke:#000;stroke-width:.07;stroke-linecap:round;stroke-linejoin:round;stroke-miterlimit:10;stroke-dasharray:none;stroke-opacity:1" transform="matrix(0 2.2673 2.2673 0 260.31 560.208)"/><g style="stroke:#000;stroke-opacity:1"><path d="M0 0h-1.74" style="fill:none;stroke:#000;stroke-width:.07;stroke-linecap:round;stroke-linejoin:round;stroke-miterlimit:10;stroke-dasharray:none;stroke-opacity:1" transform="matrix(0 2.2673 2.2673 0 292.142 562.656)"/><g style="stroke:#000;stroke-opacity:1"><path d="M0 0h-1.74" style="fill:none;stroke:#000;stroke-width:.07;stroke-linecap:round;stroke-linejoin:round;stroke-miterlimit:10;stroke-dasharray:none;stroke-opacity:1" transform="matrix(0 2.2673 2.2673 0 258.405 562.656)"/><g style="stroke:#000;stroke-opacity:1"><path d="M0 0c-7.26 0-13.14 5.88-13.14 13.14" style="fill:none;stroke:#000;stroke-width:.07;stroke-linecap:round;stroke-linejoin:round;stroke-miterlimit:10;stroke-dasharray:none;stroke-opacity:1" transform="matrix(0 2.2673 2.2673 0 260.31 558.711)"/></g></g></g></g></g><path d="M184.38 260.16h13.14v.66h-13.14z" style="fill:#fff;fill-opacity:1;fill-rule:nonzero;stroke:#000;stroke-opacity:1" transform="matrix(0 2.2673 2.2673 0 -301.246 110.882)"/><path d="M184.38 260.16h13.14v.66h-13.14z" style="fill:none;stroke:#000;stroke-width:.07;stroke-linecap:round;stroke-linejoin:round;stroke-miterlimit:10;stroke-dasharray:none;stroke-opacity:1" transform="matrix(0 2.2673 2.2673 0 -301.246 110.882)"/></g></g><g inkscape:groupmode="layer" inkscape:label="infrastructure" style="display:inline"><g inkscape:label="laser vent" style="display:inline;stroke-width:1.5;stroke-dasharray:none"><path d="M1160.735 504.698v21.013h21.105v-21.013z" style="display:inline;fill:none;fill-opacity:1;fill-rule:nonzero;stroke:#000;stroke-width:1.5;stroke-dasharray:none;stroke-opacity:1" transform="translate(0 19.987)"/><g style="display:inline;fill:none;stroke:#000;stroke-width:.980798;stroke-dasharray:none;stroke-opacity:1"><path d="m0 0 2.7-13.8L5.46 0l2.76-13.8L10.98 0l2.76-13.8M0-13.8h13.74V0H0Z" style="fill:none;stroke:#000;stroke-width:.980798;stroke-linecap:round;stroke-linejoin:round;stroke-miterlimit:10;stroke-dasharray:none;stroke-opacity:1" transform="matrix(0 1.5294 1.5294 0 1181.84 524.684)"/></g><g style="display:inline;fill:none;stroke:#000;stroke-width:.980798;stroke-dasharray:none;stroke-opacity:1"><path d="M0 0" style="fill:none;stroke:#000;stroke-width:.980798;stroke-linecap:round;stroke-linejoin:round;stroke-miterlimit:10;stroke-dasharray:none;stroke-opacity:1" transform="matrix(0 1.5294 1.5294 0 1160.735 545.698)"/></g><g style="display:inline;fill:none;stroke:#000;stroke-width:.980798;stroke-dasharray:none;stroke-opacity:1"><path d="M0 0c0 1.62-1.32 2.94-2.94 2.94S-5.88 1.62-5.88 0s1.32-2.94 2.94-2.94S0-1.62 0 0" style="fill:none;fill-opacity:1;fill-rule:evenodd;stroke:#000;stroke-width:.980798;stroke-dasharray:none;stroke-opacity:1" transform="matrix(0 1.5294 1.5294 0 1171.288 539.642)"/></g><g style="display:inline;fill:none;stroke:#000;stroke-width:.980798;stroke-dasharray:none;stroke-opacity:1"><path d="M0 0c0 1.62-1.32 2.94-2.94 2.94S-5.88 1.62-5.88 0s1.32-2.94 2.94-2.94S0-1.62 0 0" style="fill:none;stroke:#000;stroke-width:.980798;stroke-linecap:round;stroke-linejoin:round;stroke-miterlimit:10;stroke-dasharray:none;stroke-opacity:1" transform="matrix(0 1.5294 1.5294 0 1171.288 539.642)"/></g><g style="display:inline;fill:none;stroke:#000;stroke-width:.980798;stroke-dasharray:none;stroke-opacity:1"><path d="M0 0c0 .84.66 1.5 1.5 1.5.78 0 1.44-.66 1.44-1.5s.66-1.5 1.5-1.5c.78 0 1.44.66 1.44 1.5 0 1.62-1.32 2.94-2.94 2.94S0 1.62 0 0" style="fill:none;stroke:#000;stroke-width:.980798;stroke-linecap:round;stroke-linejoin:round;stroke-miterlimit:10;stroke-dasharray:none;stroke-opacity:1" transform="matrix(0 1.5294 1.5294 0 1171.288 530.649)"/></g></g></g><g inkscape:groupmode="layer" inkscape:label="building" style="display:inline"><g inkscape:label="bay 105" style="display:inline;stroke-width:.760995;stroke-dasharray:none"><path d="M1164.846 285.254h2.863l-1.431.578-1.432.577-1.431-.577-1.431-.578zM1164.913 281.638h2.358l-.677 1.095-.676 1.095-1.681-.645-1.681-.645v-.9zM1164.464 275.571l1.527.586v.655l-1.527.586-1.527.586v-2.999zM1164.62 271.332h2.444l-.696 1.813-.696 1.814-.713-.955-.712-.955-1.037-.859-1.036-.858zM1164.846 269.222h2.863l-1.432.578-1.431.577-1.431-.577-1.432-.578zM1164.301 265.583l1.745-1.449.643.643.643.643-2.388 1.278-2.388 1.279v-.946zM1143.053 290.89l1.682-.09 5.858-5.786 5.858-5.786 1.565 2.064 1.566 2.064-1.614-1.44-1.614-1.441-5.487 5.405-5.488 5.406v2.949l-2.004-.018-2.004-.017 1.561-.99 1.561-.988-1.56-.621-1.562-.621zM1125.626 282.926l2.004-2.401 5.726 5.594 5.725 5.595.286 1.26.287 1.26h-2.291v-2.958l-5.046-4.953-5.046-4.953-1.778 3.283-1.779 3.283-.046-1.304-.046-1.305zM1567.348 227.815h1.717V155.67h-3.435v72.145zM1207.214 137.348h2.29v-5.726h-4.58v5.726zM1207.214 130.477h2.29v-5.726h-4.58v5.726zM1201.489 137.348h2.29v-5.726h-4.58v5.726zM1201.489 130.477h2.29v-5.726h-4.58v5.726zM1195.763 137.348h2.29v-5.726h-4.58v5.726zM1195.763 130.477h2.29v-5.726h-4.58v5.726zM1190.038 137.348h2.29v-4.123l-1.374-1.374-1.374-1.374h2.748v-5.726h-4.58v12.597zM1356.65 320.573h178.062l-.266-30.06-.266-30.06-.326 29.487-.325 29.488h-354.942v1.145zM1169.999 293.09h8.588v-1.718l-8.591.377-8.591.376v.965h8.588zM1120.187 271.371l1.718.232 1.43-.136 1.432-.135v-3.3l-1.049-.65-1.049-.648-3.145 1.196-3.145 1.196 1.045 1.007 1.045 1.007zM1121.4 253.009h3.367v-3.3l-1.049-.649-1.049-.648-3.028 1.151-3.027 1.151.709 1.148.709 1.147zM1113.316 274.767h1.145v-10.306h-2.29v10.306zM1113.316 256.444h1.145v-10.306h-2.29v10.306zM1113.736 283.946l1.298.017-1.229.842-1.228.84-.671 1.826-.67 1.825 2.819-.539 2.82-.539-.348-3.453-.348-3.453-2.447-.897-2.447-.898.577 2.206.576 2.205zM1113.603 240.538l2.576-.945.359-3.599.359-3.598h-4.726v3.436l1.431.017 1.432.018-1.26.84-1.26.842-.653 1.718-.654 1.718-.09.25-.09.248z" style="fill:none;stroke:#000;stroke-width:.760995;stroke-dasharray:none" transform="translate(-1295.647 -167.906)scale(1.9711)"/><path d="M1118.47 235.832v5.153l-3.722 1.095-3.722 1.096v1.817h4.58v2.923l4.358-.415 4.358-.416 1.447 1.744 1.447 1.743-1.337 2.5-1.338 2.499-4.467-.6-4.468-.599v3.218h-4.58v2.29h30.918v-31.874l1.032-.381 1.032-.382-1.36-1.249-1.362-1.249-1.434 1.535-1.434 1.535h2.38l-.25 15.746-.25 15.746-.355-15.173-.356-15.173h-1.58l-5.964 5.89-5.964 5.89-2.37-3.886-2.369-3.886v-4.008l-5.439.15-5.439.151 4.008.708 4.008.708v5.154zM1104.156 274.767h1.145v-10.306h-2.291v10.306zM1104.156 256.444h1.145v-10.306h-2.291v10.306zM1103.426 288.76l2.707.517-.55-2.102-.55-2.102-1.297-.017-1.298-.018 1.228-.84 1.23-.842.761-2.064.762-2.063-.845.455-.846.456-2.004.713-2.004.713v6.676zM1103.81 240.516l2.519.924-.717-1.945-.717-1.946-1.229-.841-1.228-.841 1.431-.018 1.432-.017v-3.436h-4.726l.359 3.598.359 3.599z" style="fill:none;stroke:#000;stroke-width:.760995;stroke-dasharray:none" transform="translate(-1295.647 -167.906)scale(1.9711)"/><path d="M1107.59 243.91v15.97h2.291v-31.945l6.012-.42 6.011-.421-12.596-.006-12.596-.006 5.44.429 5.439.429zM1108.45 292.873l14.6-.217-6.585-.413-6.584-.413v-29.66h-2.29v29.774h-13.741v1.146zM1096.162 271.585l2.792-.32 1.07-1.069 1.07-1.07-3.146-1.196-3.145-1.196-1.113.688-1.112.688.396 1.897.397 1.897zM1094.136 253.145l1.431.135 1.718-.231 1.717-.231 1.046-1.007 1.045-1.007-3.145-1.196-3.146-1.196-1.048.648-1.05.649v3.3zM1042.03 134.135l.366-12.946-.367-12.247-.367-12.247v50.387l.365-12.947zM993.887 221.247l.494-2.561-.478-3.165-.479-3.165-.016 5.726-.015 5.725zM994.065 249.052l2.129-.676 2.062.792 2.063.792-2.475.915-2.475.916-1.717-.659-1.716-.658v7.116h9.16v-16.033h-9.16v8.171zM989.073 257.59h1.718v-6.871h-3.436v6.871zM989.073 249.573h1.718v-8.016h-3.436v8.016zM989.932 240.198l2.004.382v-16.2h-4.685l.338 7.718.339 7.718zM976.526 248.388l1.766-1.466 1.325 1.326 1.326 1.325h5.267v-9.16H974.76v9.44zM980.485 239.267h5.725v-3.435H974.76v3.435zM980.485 234.686h5.725v-3.435H974.76v3.435zM980.485 230.106h5.725v-5.726H974.76v5.726zM974.76 277.057h8.015v-3.435h-16.031v3.435zM974.76 272.477h8.015v-4.581h-16.031v4.58zM974.76 266.75h8.015v-3.435h-6.68l-.668 1.432-.668 1.431-.668-1.431-.668-1.432h-6.68v3.436zM1075.225 244.134l.429 5.44-.43 5.439-.428 5.44v-21.759z" style="fill:none;stroke:#000;stroke-width:.760995;stroke-dasharray:none" transform="translate(-1295.647 -167.906)scale(1.9711)"/><path d="M969.95 262.17h3.206l1.374-1.374 1.374-1.374v2.748h6.871l.133-2.576.133-2.577.523 2.004.524 2.004h46.781l.156-2.577.156-2.576.496 2.576.497 2.577h44.5v-22.903h-82.339l-.406-7.157-.407-7.158-.22 8.409-.221 8.408 6.3-.392 6.3-.392v2.791l-1.718-.66-1.718-.659v16.278h3.582l-.246-3.15-.246-3.149.245-4.008.245-4.008 1.09 2.724 1.09 2.725-1.234 1.487-1.235 1.488 1.79 3.461 1.79 3.461v.686l-11.788-.355-11.788-.355.448-3.844.449-3.843-5.553-.017-5.554-.016-4.294 4.161-4.294 4.161v2.971h3.206zM963.88 277.057h1.719V262.17h-3.436v14.887z" style="fill:none;stroke:#000;stroke-width:.760995;stroke-dasharray:none" transform="translate(-1295.647 -167.906)scale(1.9711)"/><path d="M964.023 261.025h1.576v-2.36l4.007-3.52 4.008-3.518v-11.215h-11.542l.187 10.307.188 10.306zM967.889 239.267h5.725v-3.435h-11.451v3.435zM967.889 234.686h5.725v-3.435h-11.451v3.435zM967.889 230.106h5.725v-5.726H963.5l-.577 1.431-.578 1.432-.09 1.431-.09 1.432zM1415.336 97.541l49.525-.274v4.58h6.871v-4.58l47.235.273 47.235.273-46.532.313-46.533.312-.595 2.278-.596 2.277h-7.3l-.595-2.278-.596-2.278-48.822-.311-48.823-.311zM1313.994 97.54l45.518-.273v4.436l3.722.462 3.721.462-4.294.183-4.294.183V98.44l-44.945-.313-44.945-.313zM1265.041 102.137l4.58.023-2.59.498-2.589.498-1.99-.521-1.991-.521zM1221.413 135.299l1.602 1.476-.381.401-.381.401-1.221-.755-1.222-.754v-2.246zM1181.07 131.357l1.21 1.21-.5 1.502-.502 1.502-.709-2.712-.709-2.712zM1170.285 232.561l3.149-1.347-2.223 1.736-2.223 1.736h-1.852v-.778zM1212.367 97.792h49.24l-24.984.333-24.983.333-24.256-.333-24.256-.333z" style="fill:none;stroke:#000;stroke-width:.760995;stroke-dasharray:none" transform="translate(-1295.647 -167.906)scale(1.9711)"/><path d="M1177.442 225.525h14.886l-.254 18.036-.254 18.037-.349-17.464-.348-17.464-13.997.247-13.998.246 13.455.362 13.455.363-.25 15.71-.25 15.71-.356-15.174-.356-15.173h-24.958l-.523 2.004-.524 2.004-.133-3.722-.133-3.722zM1146.047 207.293l2.195.09-1.503.602-1.503.601-.692-.692-.692-.691zM1191.688 201.477h.505l.708-1.145.707-1.146h-2.425v2.291zM1187.748 193.46h1.145v2.291h-2.291v-2.29z" style="fill:none;stroke:#000;stroke-width:.760995;stroke-dasharray:none" transform="translate(-1295.647 -167.906)scale(1.9711)"/><path d="m1184.282 196.906 1.08-1.708 1.422 1.421 1.422 1.422h4.122v-5.725h-9.16l.016 3.149.018 3.149zM1183.167 201.477h1.145v-2.291h-2.29v2.291z" style="fill:none;stroke:#000;stroke-width:.760995;stroke-dasharray:none" transform="translate(-1295.647 -167.906)scale(1.9711)"/><path d="M1154.54 198.041h12.596v5.726l15.745-.235 15.745-.236-15.459-.674-15.459-.674 6.585-.236 6.584-.235v-11.332l-6.012-.42-6.012-.421 13.455-.212 13.455-.212v12.597h2.123l.523-2.004.524-2.004.133 3.722.133 3.721h-33.208v-5.726h-22.764l-.45 4.295-.448 4.294-.193-4.867-.192-4.867z" style="fill:none;stroke:#000;stroke-width:.760995;stroke-dasharray:none" transform="translate(-1295.647 -167.906)scale(1.9711)"/><path d="M1154.54 139.638h12.596l-.265 28.343-.265 28.343-.328-27.77-.328-27.77h-22.807l-.342 19.753-.342 19.754-.258-20.326-.257-20.327zM1109.022 202.888l30.631-.266v-8.016l2.004.09 2.004.09-1.431.578-1.431.578v6.752l-1.45.556-1.45.557-29.755-.326-29.753-.327zM1080.108 221.21h4.008l-2.004.524-2.004.524-2.003-.524-2.004-.524zM1078.3 205.678l1.996-.766h60.503v.86l.001.858-30.626-.324-30.626-.324 5.47 5.553 5.469 5.554-2.13 1.928-2.13 1.928h-2.048l2.645-1.853 2.646-1.853-4.395-4.557-4.394-4.557-2.188-.84-2.187-.842zM975.447 218.895l1.603-1.476v2.245l-1.222.755-1.221.755-.38-.401-.382-.401z" style="fill:none;stroke:#000;stroke-width:.760995;stroke-dasharray:none" transform="translate(-1295.647 -167.906)scale(1.9711)"/><path sodipodi:nodetypes="ccccccccccccccccccccccccccccccccccccccccccccccccccccccccccccccccccccccccccccccccccccccccccccccccccccccccccccccccccccccccccccccccccccccccccccccccccccccccccccccccccccccccccccccccccccccccccccccccccccccccccccccccccccccccccccccccccccccccccccccccccccccccccccccccccccccccccccccccccccccccccccccccccccccccccccccccccccccccccccccccccccccccccccccccccccccccccccccccccc" d="M960.446 215.219h1.717v8.016h29.773v-10.147l-2.577-.543-2.576-.543 4.008.177 4.008.177.325 12.31.325 12.31h78.934v-11.451h.859l.859-.001-.122 5.44-.122 5.44.48-3.786.482-3.785 1.638-.629 1.638-.629-.633-1.025-.634-1.025h2.426v2.949l5.617 5.533 5.617 5.533 1.78-3.285 1.78-3.286.046 1.304.046 1.305-2.004 2.467-2.004 2.467-5.682-5.776-5.683-5.775h-2.948v30.919h28.627v-2.29h-4.58v-3.218l-4.468.6-4.467.599-1.338-2.5-1.337-2.499 1.447-1.743 1.447-1.744 4.358.416 4.358.415v-2.923h4.58v-1.817l-3.722-1.096-3.721-1.095v-10.307l4.008-.708 4.008-.708-4.783-.15-4.783-.151-.524 2.004-.523 2.004-.133-3.722-.133-3.722h26.337v6.985l1.82 3.52 1.821 3.521 5.623-5.538 5.623-5.539v-1.967l1.635-1.636 1.636-1.636h1.968l5.502-5.587 5.502-5.586-2.65-1.857-2.652-1.857h2.047l2.132 1.93 2.132 1.929-6.05 6.224-6.05 6.224 1.432.53 1.431.531v2.75l6.286 6.209 6.286 6.208 1.793-2.24 1.793-2.239-1.249 2.577-1.248 2.576h-1.715l-6.22-6.298-6.22-6.298h-1.796v30.919h36.643v58.403l176.632-.283 176.631-.282-176.059-.294-176.059-.293.265-28.34.265-28.339.328 27.77.328 27.77h14.866c38.268.006 110.983 0 175.23 0h159.118V257.59l17.463.24 17.463.239-17.177.666-17.176.666 18.608.24 18.608.239v-30.92h-5.726v-74.435h5.726V142.83l-1.718.659-1.718.659v-2.218h3.436v-18.323h-3.436v-2.218l1.718.659 1.718.659V94.977h-445.444v2.29h32.278l.582 2.227.582 2.226 3.605.453 3.605.454-4.295.183-4.294.183v-4.58h-12.596v39.02l21.757-.163 21.757-.164v-12.355h-3.509l-1.036 2.577-1.035 2.576-.073-1.337-.073-1.338.695-1.812.695-1.811 15.622.09 15.623.09-1.431.578-1.432.578v5.535l1.432.09 1.43.09-1.43.578-1.432.578v5.535h9.16v67.564h-5.725v-2.949l-5.617-5.533-5.617-5.533-1.78 3.286-1.78 3.286-.046-1.305-.046-1.304 2.004-2.468 2.004-2.467 5.682 5.776 5.683 5.776h1.803V140.83l-23.475-.345-23.475-.346 23.761.036 23.762.036.305 30.84.306 30.84-1.45.92-1.451.921 2.004.018 2.004.017v-65.274h-76.722l-.252-20.326-.252-20.327-.607 24.621-.607 24.62-6.87.667-6.87.667 7.156.192 7.157.193-.25 15.746-.25 15.746-.356-15.174-.356-15.173h-69.784l.09-3.15.09-3.149.577 1.432.578 1.431h68.515V99.558h-17.177v-2.291h-79.011v49.242h7.521l6.22-6.298 6.22-6.299h2.882l1.747 3.379 1.747 3.379-.045 1.488-.045 1.488-1.56-3.584-1.56-3.584-1.41-.872-1.41-.872-6.603 6.747-6.603 6.746.525.859.524.859h-9.825l-10.526 10.482-10.525 10.482-3.612-3.039-3.612-3.039-2.897-.727-2.898-.727-1.004 1.586-1.005 1.586-.017-2.004-.018-2.004h4.841l4.483 2.52 4.484 2.52 10.272-10.226 10.273-10.226V97.267h-79.012v96.194h32.063l.018 1.431.017 1.432 1.052-1.663 1.052-1.664-.53-.858-.531-.86 5.186-4.78 5.187-4.782.09-2.43.09-2.431 1.19 3.266 1.188 3.267-6.683 6.753-6.683 6.754h-2.458l-5.003 5.1-5.004 5.098 1.554 2.058 1.554 2.059-2.188-2.005-2.187-2.005 6.218-6.298 6.22-6.297h-30.362l-1.625 1.431-1.626 1.432-.044 8.875-.043 8.875z" style="fill:none;stroke:#000;stroke-width:.760995;stroke-dasharray:none" transform="translate(-1295.647 -167.906)scale(1.9711)"/><path d="M959.178 98.412h.45l.66-1.717.658-1.718h-2.218v3.435zM959.3 277.057h1.718V224.38h-3.435v52.677zM959.3 223.235h1.718v-6.871h-3.435v6.871z" style="fill:none;stroke:#000;stroke-width:.760995;stroke-dasharray:none" transform="translate(-1295.647 -167.906)scale(1.9711)"/><g style="stroke-width:.760995;stroke-dasharray:none"><path sodipodi:nodetypes="cccccccccccccccccccccccccccccccccccccccccccccccccccccccccccccccccccccccccccccccccccccccccccccccccccccccccccccccccccccccccccccccccccccccccccccccccccccccccccccccccccccccccccccccccccc" d="m948.313 198.86 3.325-1.964 1.541.045 1.541.045-3.584 1.56-3.584 1.56-.659 1.065-.658 1.066 5.674 5.589 5.674 5.589v-16.328l-1.431-.578-1.432-.577 1.432-.09 1.431-.091V93.831h169.336l.45-4.294.449-4.294.192 4.294.193 4.295h442.008v30.28l6.464 6.533 6.465 6.534-3.888 2.37-3.889 2.37-2.29-.045-2.29-.046c-2.04 70.229-2.18-30.936-1.718 118.93l-2.576.69-2.577.691-14.027.016-14.027.015v59.549h-358.416v-27.484h-16.936l-.509-4.867-.509-4.867.38-.47.381-.469.724 3.619.724 3.618h15.745V262.17l-33.494.156-33.495.156 2.577.496 2.576.497v2.764l4.358-.416 4.358-.415 1.447 1.743 1.447 1.744-1.337 2.499-1.338 2.5-4.39-.59-4.391-.589-.613 1.599-.614 1.598h-3.507v2.29h5.445l1.408 1.697 1.407 1.696-.439 4.602-.438 4.602h3.878l.577-1.431.577-1.432.09 3.15.09 3.149h-30.917l.132-3.722.133-3.722.524 2.004.524 2.004h5.001l-.42-5.294-.422-5.293 1.558-.987 1.558-.987 2.576-.018 2.577-.018v-2.29h-3.507l-.614-1.598-.613-1.599-4.39.59-4.392.588-1.337-2.5-1.337-2.498 1.446-1.744 1.447-1.743 4.358.415 4.358.416v-2.764l2.577-.497 2.576-.496-14.6-.156-14.6-.156v29.116l5.715-5.63 5.716-5.63 1.691 2.238 1.692 2.237.037 1.113.036 1.114-1.855-2.648-1.855-2.65-5.016 4.923-5.015 4.923v2.959l-2.577-.133-2.576-.133 1.717-.467 1.718-.466-.348-15.433-.349-15.433h-44.344l-.577 1.432-.578 1.431-.09-1.431-.09-1.432H983.92l.001 8.303.001 8.302-10.836-.23-10.835-.23-.381 9.964-.381 9.964-.236-10.02-.235-10.02h-3.331l-.4 7.73-.4 7.73-.225-36.287-.224-36.286-3.713-.36-3.712-.358-.179-2.027-.179-2.026.54 1.74.54 1.74h6.703v-6.384l-5.726-5.64-5.725-5.64v-1.31z" style="fill:none;stroke:#000;stroke-width:.760995;stroke-dasharray:none" transform="translate(-1295.647 -167.906)scale(1.9711)"/></g></g><g inkscape:label="bay 108" style="display:inline;stroke-width:1.5;stroke-dasharray:none"><g style="display:inline;fill:none;stroke:#000;stroke-width:.980798;stroke-dasharray:none;stroke-opacity:1"><path d="M0 0h-18.36M0 2.64h-18.36M0 2.64V0m-18.36 2.64V0m17.04 2.64H0V0h-1.32zm-15.78 0h-1.26V0h1.26zm0 0h-1.26V0h1.26zm15.78 0H0V0h-1.32ZM0 2.7h-18.36V-.06H0ZM-18.36-.06H0V2.7h-18.36Zm93.9-122.52h-.96v19.68h.96zm-.96 0h.96v19.68h-.96zm-18.72 19.62c0-10.86 8.82-19.62 19.68-19.62m-21 22.26v-2.64m22.32 2.64v-2.58m-21 .96h.36v.96h-.36m19.68-.96h-.36v.96h.36m0-.96h-.36v.96h.36zm-19.68 0h.36v.96h-.36zm0 .96v.66h-1.32m0 0v-2.64h1.32v1.02m19.68.96v.66h1.32m0 0v-2.58h-1.32v.96m0 1.62h1.32v-2.58h-1.32zm-19.68 0h-1.32v-2.64h1.32zm-1.32-2.64 22.32.06m-22.32 2.58h22.32m-22.32.06h22.32v-2.7l-22.32-.06zm0 0h22.32v-2.7l-22.32-.06zm52.38 5.88h1.02v19.68h-1.02zm0 0h1.02v19.68h-1.02zM126.6-74.7c0-10.86-8.82-19.68-19.68-19.68m21 22.26v-2.58m-22.26 2.58v-2.58m20.94.96h-.3v1.02h.3m-19.68-1.02h.36v1.02h-.36m0-1.02h.36v1.02h-.36zm19.68 0h-.3v1.02h.3zm0 1.02v.6h1.32m0 0v-2.58h-1.32v.96m-19.68 1.02v.6h-1.26m0 0v-2.58h1.26v.96m0 1.62h-1.26v-2.58h1.26zm19.68 0h1.32v-2.58h-1.32zm1.32-2.58h-22.26m22.26 2.58h-22.26m22.26.06h-22.26v-2.7h22.26zm-22.26-2.7h22.26v2.7h-22.26ZM-1.2 8.88h19.68v-.96H-1.2Zm0-.96h19.68v.96H-1.2Zm19.68 19.62C7.62 27.54-1.2 18.78-1.2 7.92m22.32 20.94h-2.64M21.12 6.6h-2.64m1.02 20.94v-.3h.96v.3M19.5 7.92v.3h.96v-.3m0 0h-.96v.3h.96zm0 19.62h-.96v-.3h.96zm0 0h.66v1.32m0 0h-2.64v-1.32h1.02m.96-19.62h.66V6.6m0 0h-2.64v1.32h1.02m1.62-1.32h-2.64v1.32h2.64zm0 22.26h-2.64v-1.32h2.64zm-2.64 0V6.6m2.64 22.26V6.6m-2.7 22.26h2.76V6.6h-2.76zm0-22.26h2.76v22.26h-2.76Zm4.68 97.02h.96V83.94h-.96zm0-19.68h.96v19.68h-.96zm19.68 0c0 10.86-8.82 19.68-19.68 19.68M44.04 81.3v2.64M21.78 81.3v2.64m21-.96h-.36v-1.02h.36M23.1 82.98h.3v-1.02h-.3m0 1.02h.3v-1.02h-.3zm19.68 0h-.36v-1.02h.36zm0-1.02v-.66h1.26m0 0v2.64h-1.26v-.96M23.1 81.96v-.66h-1.32m0 0v2.64h1.32v-.96m0-1.68h-1.32v2.64h1.32zm19.68 0h1.26v2.64h-1.26zm1.26 2.64H21.78m22.26-2.64H21.78m22.26-.06H21.78V84h22.26Zm-22.26 0h22.26V84H21.78Zm-3.3-181.62v-2.64m23.64 2.7v-2.64m-2.64 1.32-18.36-.06m-1.32-.66h1.32v1.32H19.8zm21 .06h-1.32v1.32h1.32zm0 0h-1.32v1.32h1.32zm-21-.06h1.32v1.32H19.8zm0 1.32v.66h-1.32m0 0v-2.64h1.32v.66m21 1.38v.66h1.32m0 0v-2.64H40.8v.66m0 1.98h1.32v-2.64H40.8zm-21-.06h-1.32v-2.64h1.32zm-1.32-2.64 23.64.06m0 2.64-23.64-.06m23.64.12-23.64-.06v-2.76l23.64.06zm0 0-23.64-.06v-2.76l23.64.06zm77.64 728.52H28.32Zm1.32 2.94v-3.96M27 631.2v-3.96m92.76 3.96h1.32v-3.96h-1.32zm-91.44 0H27v-3.96h1.32zm0 0H27v-3.96h1.32zm91.44 0h1.32v-3.96h-1.32zm1.32-3.96H27m94.08 3.96H27m94.08.06H27v-4.08h94.08ZM27 627.18h94.08v4.08H27Zm-47.82-801.54h.96v23.58h-.96zm0 0h.96v23.58h-.96Zm23.58 23.58c0-13.02-10.56-23.58-23.58-23.58m24.9 27.54v-3.96m-26.22 3.96v-3.96m24.9 1.02h-.3v.96h.3m-23.58-.96h.3v.96h-.3m0-.96h.3v.96h-.3zm23.58 0h-.3v.96h.3zm0 .96v1.98h1.32m0 0v-3.96H2.76v1.02m-23.58.96v1.98h-1.32m0 0v-3.96h1.32v1.02m0 2.94h-1.32v-3.96h1.32zm23.58 0h1.32v-3.96H2.76zm1.32-3.96h-26.22m26.22 3.96h-26.22m26.22.06h-26.22v-4.08H4.08Zm-26.22-4.08H4.08v4.08h-26.22Zm26.88 4.02v-3.96m179.1 3.96v-3.96m-2.58 1.98H7.38m-1.32-.66h1.32v1.32H6.06zm176.52 0h-1.32v1.32h1.32zm0 0h-1.32v1.32h1.32zm-176.52 0h1.32v1.32H6.06zm0 1.32v1.32H4.74m0 0v-3.96h1.32v1.32m176.52 1.32v1.32h1.26m0 0v-3.96h-1.26v1.32m0 2.64h1.26v-3.96h-1.26zm-176.52 0H4.74v-3.96h1.32zm-1.32-3.96h179.1m0 3.96H4.74m179.1.06H4.74v-4.08h179.1Zm-179.1-4.08h179.1v4.08H4.74ZM-1.2 76.38h19.68v1.02H-1.2Zm0 0h19.68v1.02H-1.2Zm19.68-18.66C7.62 57.72-1.2 66.54-1.2 77.4m22.32-21h-2.64m2.64 22.32h-2.64m1.02-21v.3h.96v-.3M19.5 77.4v-.36h.96v.36m0 0h-.96v-.36h.96zm0-19.68h-.96v.3h.96zm0 0h.66V56.4m0 0h-2.64v1.32h1.02m.96 19.68h.66v1.32m0 0h-2.64V77.4h1.02m1.62 1.32h-2.64V77.4h2.64zm0-22.32h-2.64v1.32h2.64zm-2.64 0v22.32m2.64-22.32v22.32m-2.7-22.32h2.76v22.32h-2.76zm0 0h2.76v22.32h-2.76zM-12.3 631.2h.96v22.26h-.96zm22.26 0c0 12.3-9.96 22.26-22.26 22.26m23.58-26.22v3.96m-24.9-3.96v3.96m23.58-.96h-.3v-1.02h.3m-22.26 1.02h.3v-1.02h-.3m0 1.02h.3v-1.02h-.3zm22.26 0h-.3v-1.02h.3zm0-1.02v-1.98h1.32m0 0v3.96H9.96v-.96m-22.26-1.02v-1.98h-1.32m0 0v3.96h1.32v-.96m0-3h-1.32v3.96h1.32zm22.26 0h1.32v3.96H9.96Zm1.32 3.96h-24.9m24.9-3.96h-24.9m24.9-.06h-24.9v4.08h24.9zm-24.9 0h24.9v4.08h-24.9ZM68.34 8.88H48.66V7.86h19.68ZM48.66 7.86h19.68v1.02H48.66Zm0 19.68c10.86 0 19.68-8.76 19.68-19.68m-22.32 21h2.64M46.02 6.6h2.64m-.96 20.94v-.3h-1.02v.3M47.7 7.86v.36h-1.02v-.36m0 0h1.02v.36h-1.02zm0 19.68h1.02v-.3h-1.02zm0 0h-.66v1.32m0 0h2.64v-1.32h-.96M46.68 7.86h-.66V6.6m0 0h2.64v1.26h-.96M46.02 6.6h2.64v1.26h-2.64zm0 22.26h2.64v-1.32h-2.64zm2.64 0V6.6m-2.64 22.26V6.6m2.7 22.26h-2.76V6.6h2.76zM45.96 6.6h2.76v22.26h-2.76Zm35.46-142.26v30.12zm0 0v30.12zm-5.88 0v30.12zm-16.08-2.7h10.2v6.3h-10.2Zm124.26 252.48h1.62v94.38h-1.62zm0 0h1.62v94.38h-1.62zm-25.26 0h1.62v94.38h-1.62zm0 0h1.62v94.38h-1.62zm0-30.18h26.88v30.18h-26.88zm0 0h26.88v30.18h-26.88zm1.62 36.9h23.64v-6.72h-23.64zm0 6.72h23.64v-6.72h-23.64zm0 6.78h23.64v-6.78h-23.64zm0 6.72h23.64v-6.72h-23.64zm0 6.78h23.64v-6.78h-23.64zm0 6.72h23.64v-6.72h-23.64zm0 6.72h23.64v-6.72h-23.64zm0 6.78h23.64v-6.78h-23.64zm0 6.72h23.64v-6.72h-23.64zm0 6.72h23.64v-6.72h-23.64zm0 6.78h23.64v-6.78h-23.64zm0 6.72h23.64v-6.72h-23.64zm0 6.78h23.64V195h-23.64zm0 6.72h23.64v-6.72h-23.64zm0 0h23.64v-6.72h-23.64zm0-6.72h23.64V195h-23.64zm0-6.78h23.64v-6.72h-23.64zm0-6.72h23.64v-6.78h-23.64zm0-6.78h23.64v-6.72h-23.64zm0-6.72h23.64v-6.72h-23.64zm0-6.72h23.64v-6.78h-23.64zm0-6.78h23.64v-6.72h-23.64zm0-6.72h23.64v-6.72h-23.64zm0-6.72h23.64v-6.78h-23.64zm0-6.78h23.64v-6.72h-23.64zm0-6.72h23.64v-6.78h-23.64zm0-6.78h23.64v-6.72h-23.64zm0-6.72h23.64v-6.72h-23.64Zm-180.9-80.16h39.3m-39.3 2.64h39.3m-39.6-2.64h39.9v2.64h-39.9Zm177.3-38.04h6.24zm0 78.66h6.24zm29.16 1.32v1.32H-20.82m206.16-1.32V81.3H-20.82m-.3 0h206.46v2.64H-21.12Zm67.14 0V0m2.64 81.3V2.64M46.02 81.3h2.64v.3h-2.64zm2.64 0V2.64L46.02 0v81.3zm-30.18 0V2.64m2.64 78.66V0m-2.64 81.3h2.64v.3h-2.64zm2.64 0V0l-2.64 2.64V81.3zM2.1 0v-103.02M4.74 0v-100.38M2.1 0h2.64v.3H2.1Zm2.64 0v-100.38l-2.64-2.64V0zm13.74 2.64h-39.3M21.12 0h-41.94m-.3 0h.3v2.64h-.3zm42.24 0h-41.94v2.64h39.3zM2.1-24.9h-22.92M2.1-27.54h-22.92m-.3 0H2.34v2.64h-23.46ZM2.1-103.02l79.32.12m-76.68 2.52 76.68.12m0-2.64h.3v2.64h-.3zm-76.68 2.52 76.68.12v-2.64l-79.32-.12zM165 81.3h2.64v.3H165ZM7.02 44.58v1.32m.66-.6H6.36m-3.48-.78v1.32m-.6-.66h1.26m1.68 3h-.66v-3.24h.66zm-.66-3.24h.66v3.24h-.66Zm2.28 11.22c-1.32.06-2.58.06-3.9 0l-4.44-.3c-1.14-.06-2.04-.96-2.22-2.04l-1.02-8.58c-.06-.96.6-1.8 1.56-1.92h15.96c.96 0 1.74.78 1.74 1.74v.18l-1.02 8.58c-.18 1.08-1.08 1.98-2.22 2.04zm-.66 0c-.84.06-1.74.06-2.58 0l-3.24-.24c-.72-.06-1.38-.66-1.44-1.38l-.72-6.42c-.06-.66.42-1.26 1.14-1.38h.06l4.2-.18c.84-.06 1.74-.06 2.58 0l4.2.18c.72.06 1.2.6 1.2 1.32v.06l-.72 6.42c-.06.72-.72 1.32-1.44 1.38zm0 0c-.84.06-1.74.06-2.58 0l-3.24-.24c-.72-.06-1.38-.66-1.44-1.38l-.72-6.42c-.06-.66.42-1.26 1.14-1.38h.06l4.2-.18c.84-.06 1.74-.06 2.58 0l4.2.18c.72.06 1.2.6 1.2 1.32v.06l-.72 6.42c-.06.72-.72 1.32-1.44 1.38zm.66 0c-1.32.06-2.58.06-3.9 0l-4.44-.3c-1.14-.06-2.04-.96-2.22-2.04l-1.02-8.58c-.06-.96.6-1.8 1.56-1.92h15.96c.96 0 1.74.78 1.74 1.74v.18l-1.02 8.58c-.18 1.08-1.08 1.98-2.22 2.04zM4.2 49.92c0 .36.3.66.66.66.42 0 .72-.3.72-.66s-.3-.66-.72-.66c-.36 0-.66.3-.66.66m2.04 5.22h-2.7l-1.32-.12c-.78 0-1.44-.6-1.56-1.38L0 48.48c-.12-.66.42-1.32 1.08-1.38h.12l2.34-.18q1.35-.09 2.7 0l2.34.18c.72 0 1.26.6 1.2 1.32v.06l-.66 5.16c-.12.78-.78 1.38-1.56 1.38zm0 0h-2.7l-1.32-.12c-.78 0-1.44-.6-1.56-1.38L0 48.48c-.12-.66.42-1.32 1.08-1.38h.12l2.34-.18q1.35-.09 2.7 0l2.34.18c.72 0 1.26.6 1.2 1.32v.06l-.66 5.16c-.12.78-.78 1.38-1.56 1.38zm7.32.96-8.7.66-8.64-.66-1.14-12.78H14.7Zm0 0-8.7.66-8.64-.66-1.14-12.78H14.7zM2.82 39.36v-1.32m-.66.66h1.26m3.54.72V38.1m.6.66H6.24m-1.62-3h.66V39h-.66zm0 0h.66V39h-.66Zm-1.68-7.92q1.98-.18 3.96 0l4.44.24c1.14.06 2.04.96 2.16 2.1l1.02 8.52c.12.96-.54 1.86-1.5 1.98H-2.94c-.96 0-1.74-.78-1.74-1.74v-.24l1.02-8.52a2.374 2.374 0 0 1 2.22-2.1zm.66 0c.9-.06 1.74-.06 2.64 0l3.18.18c.78.06 1.38.66 1.5 1.44l.66 6.36c.12.72-.42 1.32-1.08 1.38h-.06l-4.2.18c-.9.06-1.74.06-2.64 0l-4.2-.18c-.66 0-1.2-.6-1.14-1.26v-.12l.72-6.36c.06-.78.66-1.38 1.44-1.44zm0 0c.9-.06 1.74-.06 2.64 0l3.18.18c.78.06 1.38.66 1.5 1.44l.66 6.36c.12.72-.42 1.32-1.08 1.38h-.06l-4.2.18c-.9.06-1.74.06-2.64 0l-4.2-.18c-.66 0-1.2-.6-1.14-1.26v-.12l.72-6.36c.06-.78.66-1.38 1.44-1.44zm-.66 0q1.98-.18 3.96 0l4.44.24c1.14.06 2.04.96 2.16 2.1l1.02 8.52c.12.96-.54 1.86-1.5 1.98H-2.94c-.96 0-1.74-.78-1.74-1.74v-.24l1.02-8.52a2.374 2.374 0 0 1 2.22-2.1zm2.7 6.18c0-.36-.36-.66-.72-.66s-.66.3-.66.66c0 .42.3.66.66.66s.72-.24.72-.66m-2.1-5.16c.96-.06 1.86-.06 2.76 0l1.32.06c.78 0 1.44.6 1.56 1.38l.66 5.16c.06.72-.42 1.32-1.14 1.38 0 .06 0 .06-.06.06l-2.34.12c-.9.06-1.8.06-2.76 0L1.2 36.9c-.66-.06-1.2-.66-1.2-1.38v-.06l.72-5.16c.12-.78.72-1.38 1.5-1.38zm0 0c.96-.06 1.86-.06 2.76 0l1.32.06c.78 0 1.44.6 1.56 1.38l.66 5.16c.06.72-.42 1.32-1.14 1.38 0 .06 0 .06-.06.06l-2.34.12c-.9.06-1.8.06-2.76 0L1.2 36.9c-.66-.06-1.2-.66-1.2-1.38v-.06l.72-5.16c.12-.78.72-1.38 1.5-1.38zm-7.32-.96 8.7-.66 8.7.66 1.14 12.78H-4.92Zm0 0 8.7-.66 8.7.66 1.14 12.78H-4.92zm-12.24 4.92c.72 2.58 2.76 3.84 4.5 2.76.78-.54 1.44-1.56 1.8-2.76.54-2.64-.48-5.34-2.22-6.12s-3.54.72-4.08 3.36c-.18.9-.18 1.86 0 2.76m0 0c.72 2.58 2.76 3.84 4.5 2.76.78-.54 1.44-1.56 1.8-2.76.54-2.64-.48-5.34-2.22-6.12s-3.54.72-4.08 3.36c-.18.9-.18 1.86 0 2.76m8.4-2.64v.06zl-.96 8.16.96 2.34h-10.5l1.02-2.34-.96-8.16v.06-.06c.18-3.06 2.64-5.4 5.52-5.22 2.64.12 4.8 2.4 4.92 5.22m0 0v.06zl-.96 8.16.96 2.34h-10.5l1.02-2.34-.96-8.16v.06-.06c.18-3.06 2.64-5.4 5.52-5.22 2.64.12 4.8 2.4 4.92 5.22m-2.1 21c-.78-2.64-2.76-3.84-4.5-2.76-.84.48-1.5 1.5-1.8 2.76-.54 2.58.48 5.34 2.22 6.06 1.74.78 3.54-.72 4.08-3.3.12-.9.12-1.86 0-2.76m0 0c-.78-2.64-2.76-3.84-4.5-2.76-.84.48-1.5 1.5-1.8 2.76-.54 2.58.48 5.34 2.22 6.06 1.74.78 3.54-.72 4.08-3.3.12-.9.12-1.86 0-2.76m-8.4 2.58v-.06zl.96-8.16-.96-2.28h10.5l-1.02 2.28.96 8.16h-.06l.06-.06v.06c-.18 3.06-2.64 5.4-5.52 5.28-2.64-.18-4.8-2.46-4.92-5.28m0 0v-.06zl.96-8.16-.96-2.28h10.5l-1.02 2.28.96 8.16h-.06l.06-.06v.06c-.18 3.06-2.64 5.4-5.52 5.28-2.64-.18-4.8-2.46-4.92-5.28m4.56-77.16h8.4v21.96h-8.4ZM46.02 0h139.32v1.32M48.66 2.64h136.68V1.32M48.66 2.64h136.68V0H46.02zm35.4-77.34h101.28v1.32M81.42-72.12h103.92v-1.26M81.42-72.12h103.92v-2.58H84.06zm2.64-74.76v72.18m-2.64-72.18v74.76m0-75h2.64v.24h-2.64Zm0 .24v74.76l2.64-2.58v-72.18zm-102.24.06V675.3h-1.98m-1.98-826.08V675.3h1.98m-1.98-826.08V675.3h3.96v-822.12zm3.96 818.64v-34.5zm-3.96-818.64h217.56v1.98m-213.6 1.98h213.6v-1.98m-213.6 1.98h213.6v-3.96H-24.78zm0 776.04v-1.98h154.38v1.98m-154.38 0v1.98h154.38v-1.98m-154.38-1.98h154.38v3.96H-20.82ZM187.8-150.78v-.06m3.6 2.76v-.06m0-2.64v-.06m-.9 2.76h.9m-1.2 262.68v-.12m-4.86-265.26h6.06m-1.2 513.54V114.6m.3-188.88v-.12m0-73.68v-.06m0 233.94V-74.28m0-2.46v-71.34m-6.78 775.44v-.06m9.3 3.6-9.3-3.54m-38.28 28.74v-.12m23.58-23.64-.12 2.82c-1.629 10.926-9.575 19.297-20.64 20.7l-2.82.24v-.12m.6.12v-.12m0 .12h-.6m23.58-23.76v-.06m-22.98.06v23.76m-.6 0v-.12m23.58-28.62v4.98m0 0v-.06m-23.58-4.92v28.74m23.58-28.74v-.06m.66 5.04h-.66m-23.58-4.98v-.06m24.24.06h-.66m-22.98 4.98v-.06m-1.32-4.92h.72m24.24 4.98v-.06m-24.96.06h1.32m-1.32 0v-.06m24.96-4.92v4.98m-24.96-4.98v4.98m49.74-706.62v-.12m0-2.34v2.46m-1.92-76.5v-.06m-1.14.06v-.06m1.14 2.76v-2.7m-1.14 2.7v-2.7m-7.86 783.12v-.06m10.44-3.72v-.06m-.96 2.4.96-2.34M190.5 90.3v-.06m0 14.28V90.3m1.02 282.48v-.12m0-9.9v-.12m0 .12v10.02m-1.32 0v-.12m0-9.9h1.32m0-248.16v-.12m0 258.3h-1.32m1.32-268.26v-.12m0 .12v10.08m-1.32 0v-.12m.3-9.96h1.02m0 10.08h-1.32m.3-24.3v-.06m2.04 89.52v-.06m0-89.4v-.06m1.02 89.52h-1.02m1.02-89.46v-.06m-1.02 89.52V90.3m1.02 89.46V90.3m-48.84 542.04v-.06m-11.22.06v-.06m11.22-4.92v4.98m-6.3-4.98v-.06m6.3 5.04H133.5m36.18 0v-.06m-24.96-4.92h-6.3m31.26 0v4.98-.06m0-4.92v-.06m14.04 5.04h-14.04m-31.26-4.98v-.06m45.3.06h-14.04m-36.18 4.98v-.06m4.92-82.68v77.76m0-77.76v-.12m-4.92-4.8v87.66m0-87.66v-.06m56.7 4.98h-51.78m46.92-700.38v-.06m0 695.52H133.5m56.7-171.9v-.12m-4.86 172.02v-695.46m4.86 700.38V372.78m.3-286.98v-.06m3.96-160.02v-.12m-3.96.12v-.12m3.96-2.34v2.46m-3.96-2.46v-.06m3.96 2.52h-3.96m3.96-2.46h-3.96m-200.64-25.38 1.56-1.56m-3.96 13.92 3.18 1.62 3.18-1.62m-3.18-13.14v14.76m.25-16.752q.2 0 .36-.044.16-.042.271-.127.11-.084.172-.208.06-.124.06-.284 0-.068-.014-.125-.014-.058-.043-.114-.029-.055-.073-.109t-.103-.115h.764q.014 0 .024-.007t.017-.022.01-.043.003-.07q0-.04-.003-.068-.003-.027-.01-.044-.007-.015-.017-.022-.01-.005-.024-.005h-2.136q-.015 0-.024.005t-.017.02q-.006.016-.008.04-.003.023-.003.057 0 .036.003.058.002.024.008.04.007.014.017.02.009.006.024.006h.206q-.072.07-.124.135-.053.064-.087.129-.036.066-.053.134-.018.07-.018.146 0 .167.064.284.065.117.177.19.112.075.262.11.147.033.314.033zm.031-.295q-.117 0-.226-.02-.11-.016-.195-.06-.085-.043-.136-.116t-.051-.182q0-.054.017-.107.015-.052.051-.107.034-.054.092-.114.056-.059.14-.125h.607q.142.115.216.219t.075.217q0 .106-.051.18-.051.077-.136.123-.085.047-.19.07-.106.022-.213.022m-.013-1.647q.2 0 .358-.06.157-.058.265-.166.11-.11.165-.266t.056-.355q0-.181-.052-.331-.053-.15-.155-.257-.104-.107-.258-.164t-.357-.058h-1.365q-.013 0-.023.007t-.016.024q-.006.017-.01.044-.005.027-.005.071 0 .041.005.07.003.029.01.044.006.017.016.024t.023.007h1.33q.152 0 .266.037.114.038.19.107.075.072.114.17.038.1.038.225 0 .127-.038.226-.037.1-.112.168-.075.07-.185.105-.11.038-.259.038h-1.344q-.013 0-.023.007t-.016.023q-.006.017-.01.045-.005.028-.005.07t.005.069q.003.029.01.044.006.017.016.024.01.008.023.008zM2.1-42.12h-22.92v6.72H2.1Zm0-6.78h-22.92v6.78H2.1Zm0-6.72h-22.92v6.72H2.1Zm0-6.78h-22.92v6.78H2.1Zm0-6.72h-22.92v6.72H2.1Zm0-6.78h-22.92v6.78H2.1Zm0-6.72h-22.92v6.72H2.1Zm0-6.78h-22.92v6.78H2.1Zm0-6.78h-22.92v6.78H2.1Zm0-6.72h-22.92v6.72H2.1Zm0 0h-22.92v6.72H2.1Zm0 6.72h-22.92v6.78H2.1Zm0 6.78h-22.92v6.78H2.1Zm0 6.78h-22.92v6.72H2.1Zm0 6.72h-22.92v6.78H2.1Zm0 6.78h-22.92v6.72H2.1Zm0 6.72h-22.92v6.78H2.1Zm0 6.78h-22.92v6.72H2.1Zm0 6.72h-22.92v6.78H2.1Zm0 6.78h-22.92v6.72H2.1Z" style="fill:none;stroke:#000;stroke-width:.980798;stroke-linecap:round;stroke-linejoin:round;stroke-miterlimit:10;stroke-dasharray:none;stroke-opacity:1" transform="matrix(0 1.5294 1.5294 0 832.87 555.517)"/></g></g><g inkscape:label="bay 110" style="display:inline"><g style="display:inline;fill:none;stroke:#000;stroke-width:.980798;stroke-dasharray:none;stroke-opacity:1"><path d="M0 0v-.06M-3.42 0H0m1.14 586.92v-.12m97.98-245.4v-.06m-1.44-63.78v-.06m0-3.24v-.06m0 .06v3.3m-3.24-3.3v-.06m0 .06h3.24m-3.24 3.3v-.06m0 .06v-3.3m3.24 3.3h-3.24M3.42 587.76v-.06m99.96-250.2L3.42 587.76m-1.8-8.64V579M93.846-4.878v-.06m-21-21v-.06m0 .06 2.46.12c9.615 1.182 17.156 8.835 18.36 18.42l.18 2.52m-20.4-21.06v-.06m0 .06h-.6m21 21.06v-.06m-20.4.06v-21.06m-.6 0v-.06m21 25.62v-4.5m0 0v-.06m-21 4.56v-25.56m21 25.56v-.06m.6-4.44h-.6m-21 4.5v-.06m21.6.06h-.6m-20.4-4.5v-.06m-1.26 4.56h.66m21.6 0v-.06m-22.26-4.44h1.26m-1.26 4.5v-.06m22.26-4.44v4.5m-22.26-4.5v4.5m0 0v-.06m0-4.44v4.5m22.26 0v-.06m0-4.44v4.5-.06m0-4.44v-.06M-45.6-4.5v-.06m144 341.04L1.62 579.12M-66.6-25.56v-.06m0 .06 2.46.12c9.615 1.182 17.156 8.835 18.36 18.42l.18 2.52M-66-25.56v-.06m0 .06h-.6m21 21.06v-.06M-66-4.5v-21.06m-.6 0v-.06M-45.6 0v-4.5m0 0v-.06M-66.6 0v-25.56M-45.6 0v-.06m.6-4.44h-.6m-21 4.5v-.06M-45 0h-.6M-66-4.5v-.06M-67.26 0h.66M-45 0v-.06M-67.26-4.5H-66M-67.26 0v-.06M-45-4.5V0m-22.26-4.5V0m-28.08 539.76v-.06m.3.24v-.12m0 .12-.3-.18m2.1.84v-.06m-1.26-.36-.54-.24m2.46.9v-.06m0 .06-.66-.24m2.46.96v-.06m-1.2-.42-.6-.24m2.4.96v-.06m0 .06-.6-.24m2.52.96v-.06m-1.26-.42-.66-.24m2.46.96v-.06m0 .06-.54-.24m2.4.96v-.12m-1.26-.36-.6-.24m2.52.96v-.12m0 .12-.66-.24m2.46.96v-.12m-1.26-.36-.54-.24m2.4.84v-.06m0 .06-.6-.12m2.4.84v-.06m-1.14-.42-.66-.24m2.46.96v-.06m0 .06-.66-.24m2.52.96v-.12m-1.26-.36-.6-.24m2.4.96v-.12m0 .12-.54-.24m2.46.9v-.06m-1.26-.36-.66-.24m2.52.9v-.06m0 .06-.6-.24m2.4.96v-.06m-1.26-.42-.54-.24m2.46.96v-.06m0 .06-.66-.24m2.46.96V549m-1.2-.42-.6-.24m2.4.96v-.06m0 .06-.6-.24m2.52.96v-.12m-1.26-.36-.66-.24m2.46.96v-.12m0 .12-.54-.24m2.4.96v-.12m-1.26-.36-.6-.24m2.52.96v-.12m0 .12-.66-.24m2.46.9v-.06m-1.2-.42-.6-.18m2.4.9v-.06m0 .06-.6-.24m2.4.96v-.06m-1.14-.42-.66-.24m2.46.96v-.06m0 .06-.66-.24m2.52.96v-.06m-1.26-.42-.6-.24m2.4.96v-.12m0 .12-.54-.24m2.46.96v-.12m-1.26-.36-.66-.24m2.52.96v-.12m0 .12-.6-.24m2.4.84v-.06m-1.2-.3-.6-.24m2.46.84v-.06m0 .06-.66-.24m2.46.96v-.06m-1.2-.42-.6-.24m2.4.96v-.12m0 .12-.6-.24m2.46.96v-.12m-1.2-.36-.66-.24m2.46.96v-.12m0 .12-.6-.24m2.46.9v-.06m-1.26-.42-.6-.18m2.46.9v-.06m0 .06-.6-.24m2.4.96v-.06m-1.14-.42-.66-.24m2.46.96v-.06m0 .06-.66-.24m2.46.96v-.06m-1.2-.42-.6-.24m2.4.96v-.06m0 .06-.6-.24m2.52.96v-.12m-1.26-.36-.66-.24m2.46.96v-.12m0 .12-.54-.24m2.4.9v-.06m-1.26-.36-.6-.24m2.52.9v-.06m0 .06-.66-.24m2.46.96v-.06m-1.2-.42-.6-.24m2.4.96v-.06m0 .06-.6-.24m2.4.96v-.06m-1.14-.42-.66-.24m2.46.96v-.06m0 .06-.66-.24m2.52.96v-.12m-1.26-.36-.6-.24m2.4.96v-.12m0 .12-.54-.24m2.46.96v-.12m-1.26-.36-.66-.24m2.52.9v-.06m0 .06-.6-.18m2.4.84v-.06m-1.14-.36-.66-.24m2.46.9v-.06m0 .06-.66-.24m2.46.96v-.12m-1.2-.36-.6-.24m2.4.96v-.12m0 .12-.6-.24m2.52.9v-.06m-1.26-.36-.66-.24m2.46.9v-.06m0 .06-.54-.24m2.4.96v-.06m-1.26-.42-.6-.24m2.52.96v-.06m0 .06-.66-.24m2.46.96v-.06m-1.2-.42-.6-.24m2.4.96v-.06m0 .06-.6-.24m2.4.96v-.12m-1.14-.36-.66-.24m2.46.96v-.12m0 .12-.66-.24m2.52.96v-.12m-1.26-.36-.6-.24m2.4.9v-.06m0 .12-.54-.24m2.46.9v-.06m-1.26-.42-.66-.18m-86.04-33.06v-.06m88.26 33.9-.3-.12m.3.12v-.12m-88.5-33.06.24-.66m0 0v-.06m88.02 34.5.24-.6m-88.5-33.18v-.12m88.5 33.3-88.26-33.84m-.72 1.92v-.12m88.74 32.64-88.26-33.78m87.78 35.04v-.06m-87.78-34.98-.48 1.26m0 0v-.12m88.74 32.64-.48 1.26m-87.78-35.04v-.12m-1.38.96.9.42m88.74 32.52v-.06m-89.22-34.08.96.36m87.78 35.04v-.06m1.44-.78-.96-.42m-89.22-34.14V540m89.7 35.76-.96-.3m1.44-.84v-.12m-90.6-33.24.42-1.2m85.2-705.84v-.06m4.5 741.6.48-1.14m-4.98-741.66v-.06m-29.46 1.32h29.46m-29.46-1.26v-.06m29.46 2.52v-2.46m1.02 0v-.06m-30.48 2.52v-2.46m30.48 2.46v-.12m-31.44-2.34h31.44m-31.44 2.46h31.44v-.12m-31.44.12v-.12m31.44-2.34v2.46m-35.52-1.2v-.06m4.08-1.2v2.46m-4.08-2.46v-.06m-29.52 1.32h29.52m-29.52-1.26v-.06m29.52 2.52v-2.46m1.02 0v-.06m-30.54 2.52v-2.46m30.54 2.46v-.12m-31.44-2.34h31.44m-31.44 2.46h31.44v-.12m-31.44.12v-.12m31.44-2.34v2.46m-35.22-2.46v-.06m3.78.06v2.46m-27.36-26.16v-.12m0 .12 2.82.12c10.906 1.48 19.265 9.846 20.52 20.76l.24 2.82m-22.98-23.7v-.12m0 .12h-.6m23.58 23.7v-.06m-22.98.06v-23.7m-.6 0v-.12m23.58 26.28v-2.46m0 0v-.06m-23.58 2.52v-26.16m23.58 26.16v-.12m.6-2.34h-.6m-23.58 2.46v-.12m24.18.12h-.6m-22.98-2.46v-.06m-1.32 2.52h.72m24.18 0v-.12m-24.9-2.34h1.32m23.58 0v2.46m6.3-75.12v-.12m-33.12.12h33.12m34.26 0v-.12m-33.06-1.26v-.06m0 1.44h33.06m-34.26-1.38v-.06m1.2 2.76v-2.7m67.38 1.38v-.12m-68.58 1.44v-2.7m35.4 0v-.06m0 1.44h33.18m-34.32-1.38v-.06m1.14 2.76v-2.7m43.26 1.38v-.12m-44.4 1.44v-2.7m35.4 0v-.06m0 1.44h9m-10.08-1.38v-.06m1.08 2.76v-2.7m33.78-23.7v-.12m-34.86 26.52v-2.7m11.28 0 .18-2.82c1.206-10.754 9.877-19.446 20.58-20.64l2.82-.24v-.12m-.6.12v-.12m0 .12h.6m-23.58 23.7v-.06m22.98.06v-23.7m.6 0v-.12M6.72-238.38v-2.7m0 0v-.06m23.58 2.76v-26.4m-23.58 26.4v-.06m-114.12-2.64H6.72m23.58 2.7v-.06m-137.7.06H6.72m22.98-2.7v-.06m1.8 2.76h-1.2m-24.78-2.7v-.06m25.98.06h-1.8m1.8 0v-.06m-25.98 2.76v-2.7m25.98 2.7v-2.7M-93.48 12.3v-.06m11.88-6.3v-.12m0 6.48v-.06m-23.64-6.3h23.64m0 12.84v-.12m-23.64-6.36h23.64m0 12.84v-.06m-23.64-6.3h23.64m0 12.84v-.06m-23.64-6.42h23.64m0 12.84v-.06m-23.64-6.3h23.64m0 12.84v-.06m-23.64-6.42h23.64m0 12.84v-.06m-23.64-6.3h23.64m0 12.84v-.06m-23.64-6.42h23.64m0 12.9v-.12m-23.64-6.3h23.64m0 12.84v-.06m-23.64-6.36h23.64m0 12.84v-.12m-23.64-6.3h23.64m0 12.9v-.12m-23.64-6.36h23.64m0 12.9v-.06m-23.64-6.36h23.64m-23.64 6.42h23.64m70.5 492.78v-.06m-87-33.3-17.16-6.84M1.62 579.12V579m1.8 8.76-14.52-5.52m2.7-7.02v-.06m0 .06 10.02 3.9m-99.72-30.24v-.06m87 33.42 2.7-7.02m-87-33.36v-.06m0 .06-2.7 7.02m-6.72-10.62 9.42 3.6M98.4 336.48v-.12m0-8.28v8.4M31.5-252.6v-.06m4.86 10.56v-.06m0-10.44H31.5m0 0v-.06m4.86.06v10.5m0 0v-.06m-4.86 1.08v-11.52m-.24 14.22v-.06m72.12-3.66H36.36m-5.1 8.34v-.06m0 .06v-4.62m64.44 4.62v-.06m0 .06H31.26M95.7 0v-233.76m1.98 253.08v-.06m0-3.24v-.12m0 .12v3.3m-3.24-3.3v-.12m0 .12h3.24m-3.24 3.3v-.06m0 .06v-3.3m3.24 3.3h-3.24M-67.26 0h-41.04m26.7 89.46v-.06m0-89.4v-.06m.96 89.52h-.96M-80.64 0v-.06m-.96 89.52V0m.96 89.46V0m77.22-106.92v-.06M-3.42 0v-.06m-2.4-106.86h2.4M-5.82-4.5v-.06m2.4-102.36V0m-63.84 0v-.06m61.44-106.86V-4.5m-61.44 0V0M-45 0v-.06M-67.26-4.5h-41.04m63.3 0V0v-.06m0-4.44v-.06M71.39 0H-44.128M70.261-4.5H-44.06M-79.44-164.58v-.12m3.18.12v-.12m-3.18-2.34v2.46m0 0v-.12m3.18-2.34v2.46m-3.18-2.46v-.06m3.18 2.52h-3.18m34.62 0v-.12m-31.44-2.34h-3.18m37.68 2.46v-.12m-3.06-2.34v2.46m0 0v-.12m3.06-2.34v2.46m-3.06-2.46v-.06m3.06 2.52h-3.06m34.5 0v-.12m-31.44-2.34h-3.06m34.5 0v2.46-.12m0-2.34v-.06m6.9 2.52h-6.9m6.9 0v-.12m-2.4-2.34h-4.5m4.5 0v-.06m2.4-71.28v73.8m-2.4-73.8v71.34M98.4 328.08V0m4.98 337.5v-579.6" style="display:inline;fill:none;stroke:#000;stroke-width:.980798;stroke-linecap:round;stroke-linejoin:round;stroke-miterlimit:10;stroke-dasharray:none;stroke-opacity:1" transform="matrix(0 1.5294 1.5294 0 970.971 1012.491)"/></g></g></g></g></g><g inkscape:label="sized outlines" style="display:inline"><path d="M0 1122.52V-94.488M0 1122.52h-266.457M-266.457 1122.52v431.81M-266.457 1554.33H-2865.83M-2865.83 1554.33v-428.98M-2865.83 1125.35h-749.29M-3615.12 1125.35h-695.43M-4310.55 1125.35h-192.76M-4503.31 1125.35V-94.496M-4503.31-94.496 0-94.488M-5410.39-94.496h-1363.47M-6773.86-94.496v925.984M-6773.86 831.488v538.582M-5410.39 1125.35h-1363.48M-5410.39 1125.35V-94.496M-4503.31 1824.66H32.126M32.126 1824.66v891.96M32.126 2716.62h-445.984M-413.858 2716.62h19.942M-413.858 2716.62v302.37M-413.858 3018.99H-4503.31M-4503.31 3018.99V4198.2M-4503.31 4198.2H236.22M236.22 4198.2V1930.48M-4503.31 4198.2h1942.68M-4503.31 4198.2h-907.08M-5410.39 4198.2h-1360.63M-6771.02 4198.2V3018.99M-6771.02 3018.99h1360.63M-5410.39 3018.99V1839.77" style="fill:none;stroke:#000;stroke-linecap:round" transform="translate(1592.385 -154.879)scale(.2646)"/></g></svg>